<svg width="12" height="7" viewBox="0 0 12 7" fill="none" xmlns="http://www.w3.org/2000/svg">
<path d="M10.4095 0.543527C10.3426 0.476563 10.2656 0.44308 10.1785 0.44308C10.0914 0.44308 10.0144 0.476563 9.94747 0.543527L5.99993 4.49107L2.05239 0.543527C1.98542 0.476563 1.90841 0.44308 1.82136 0.44308C1.7343 0.44308 1.65729 0.476563 1.59033 0.543527L1.0881 1.04576C1.02114 1.11272 0.987653 1.18973 0.987653 1.27679C0.987653 1.36384 1.02114 1.44085 1.0881 1.50781L5.7689 6.18862C5.83587 6.25558 5.91288 6.28906 5.99993 6.28906C6.08698 6.28906 6.16399 6.25558 6.23096 6.18862L10.9118 1.50781C10.9787 1.44085 11.0122 1.36384 11.0122 1.27679C11.0122 1.18973 10.9787 1.11272 10.9118 1.04576L10.4095 0.543527Z" fill="#1E2533"/>
</svg>
