<svg width="24" height="25" viewBox="0 0 24 25" fill="none" xmlns="http://www.w3.org/2000/svg">
<path d="M1 3.96289H3.09804C3.67424 3.96622 4.18477 4.33134 4.36763 4.87154L7.73527 14.2809H9.71543H17.2051L19 7.62413H5.34425" stroke="white" stroke-width="1.5" stroke-miterlimit="10" stroke-linejoin="round"/>
<path d="M8.07249 21.2698C9.00243 21.2698 9.7563 20.5247 9.7563 19.6056C9.7563 18.6865 9.00243 17.9414 8.07249 17.9414C7.14254 17.9414 6.38867 18.6865 6.38867 19.6056C6.38867 20.5247 7.14254 21.2698 8.07249 21.2698Z" fill="white"/>
<path d="M17.1643 21.2698C18.0942 21.2698 18.8481 20.5247 18.8481 19.6056C18.8481 18.6865 18.0942 17.9414 17.1643 17.9414C16.2343 17.9414 15.4805 18.6865 15.4805 19.6056C15.4805 20.5247 16.2343 21.2698 17.1643 21.2698Z" fill="white"/>
</svg>
