<svg width="24" height="18" viewBox="0 0 24 18" fill="none" xmlns="http://www.w3.org/2000/svg">
<path d="M8.9966 9.01176L11.5613 6.64139C11.6638 6.5461 11.7508 6.5224 11.8746 6.52287C11.9994 6.52524 12.1213 6.57929 12.188 6.64139L14.7526 9.01176M11.8746 0.833984C13.4845 0.833984 15.0986 1.45241 16.3264 2.70065C17.2791 3.66918 17.6136 5.11819 17.8272 6.37473C20.265 6.77721 22.3664 8.67564 22.3664 11.2636C22.3664 14.1379 20.0645 16.4784 17.2371 16.4784H5.81268C3.3667 16.4784 1.38281 14.4615 1.38281 11.9747C1.38281 9.55363 3.49983 7.83321 5.85652 7.73034C5.78844 6.00542 6.1377 4.01502 7.43029 2.70065C8.65713 1.45336 10.2647 0.833984 11.8746 0.833984ZM11.8606 13.1599V6.52287V13.1599Z" stroke="#FC8C5F" stroke-width="1.5" stroke-miterlimit="10" stroke-linecap="round" stroke-linejoin="round"/>
</svg>
