<svg width="48" height="48" viewBox="0 0 48 48" fill="none" xmlns="http://www.w3.org/2000/svg">
<path d="M3.56055 0.669922C3.0918 0.777344 2.33008 1.16797 1.93945 1.5L1.62695 1.76367L1.85156 1.99805C1.97852 2.13477 2.24219 2.36914 2.4375 2.53516L2.80859 2.81836L3.12109 2.57422C3.30664 2.4375 3.6582 2.27148 3.92188 2.20313C4.39063 2.07617 4.39063 2.07617 4.33203 1.73438C4.30274 1.54883 4.27344 1.20703 4.27344 0.972656C4.27344 0.523438 4.24414 0.503906 3.56055 0.669922Z" fill="#FA7846"/>
<path d="M6.71484 1.34375V2.125H7.88672H9.05859V1.34375V0.5625H7.88672H6.71484V1.34375Z" fill="#FA7846"/>
<path d="M11.4023 1.34375V2.125H12.5742H13.7461V1.34375V0.5625H12.5742H11.4023V1.34375Z" fill="#FA7846"/>
<path d="M16.1875 1.34375V2.125H17.3594H18.5312V1.34375V0.5625H17.3594H16.1875V1.34375Z" fill="#FA7846"/>
<path d="M28.5508 0.669926C27.9453 0.81641 27.0566 1.33399 26.627 1.80274C26.4121 2.03711 26.0898 2.52539 25.9238 2.88672L25.6113 3.54102L25.582 10.25L25.5527 16.9688H24H22.4375V16.5781V16.1875H21.6562H20.875V16.5684V16.9492L19.2441 16.9883C17.6426 17.0176 17.5938 17.0273 16.9492 17.3301C16.5879 17.4961 16.0996 17.8184 15.8555 18.043C15.3086 18.5508 14.7617 19.6055 14.6738 20.3379C14.6055 20.8652 14.5957 20.875 14.2734 20.875H13.9414V21.6563V22.4375H14.2832H14.625V24V25.5625H9.15625H3.6875V36.5V47.4375H24H44.3125V36.5V25.5625H40.4062H36.5V24.0098V22.4473L40.4844 22.418L44.4688 22.3887L45.2109 22.0273C46.0996 21.5879 46.6465 21.0215 47.0762 20.1133L47.3887 19.459V11.4902V3.53125L47.0273 2.78907C46.5879 1.90039 46.0215 1.35352 45.1133 0.923832L44.459 0.611332L36.6953 0.591801C32.2129 0.582035 28.7754 0.621098 28.5508 0.669926ZM44.2539 2.24219C44.791 2.39844 45.6016 3.20899 45.7578 3.7461C45.9238 4.32227 45.9238 18.6777 45.7578 19.2539C45.6016 19.791 44.791 20.6016 44.2539 20.7578C43.9707 20.8359 42.7793 20.875 40.1914 20.875H36.5391L36.4316 20.2598C36.373 19.9277 36.2949 19.5762 36.2559 19.4785C36.1875 19.3223 36.2852 19.3125 37.5156 19.3125H38.8438V18.5313V17.75H38.0625H37.2812V11.5V5.25H39.2344H41.1875V6.03125V6.8125H41.9688H42.75V5.25V3.6875H36.5H30.25V5.25V6.8125H31.0312H31.8125V6.03125V5.25H33.7656H35.7188V11.5V17.75H35.3672C35.1523 17.75 34.7129 17.6035 34.2734 17.3789L33.5312 17.0176L30.3281 16.9883L27.125 16.959V10.5527C27.125 5.80664 27.1543 4.04883 27.2422 3.7461C27.3887 3.24805 28.209 2.40821 28.6875 2.25196C29.1953 2.09571 43.707 2.08594 44.2539 2.24219ZM33.3164 18.6484C33.8535 18.8047 34.6641 19.6152 34.8203 20.1523C34.8984 20.4355 34.9375 21.5098 34.9375 23.668V26.7832L32.9844 24.8301L31.0312 22.877L27.125 26.7832L23.2188 30.6895L21.2656 28.7363L19.3125 26.7832L17.75 28.3457L16.1875 29.9082V25.2305C16.1875 21.8418 16.2168 20.4453 16.3047 20.1523C16.4512 19.6543 17.2715 18.8145 17.75 18.6582C18.2578 18.502 32.7695 18.4922 33.3164 18.6484ZM33.0039 27.0957L34.9375 29.0293V32.1445C34.9375 34.3027 34.8984 35.377 34.8203 35.6602C34.6641 36.1973 33.8535 37.0078 33.3164 37.1641C33.082 37.2324 32.3398 37.2813 31.5879 37.2813H30.2695L30.2012 36.7441C30.1133 36.0117 29.5664 34.957 29.0195 34.4492C28.375 33.8535 27.4863 33.4727 26.5977 33.4043L25.875 33.3457L25.1133 32.584L24.3418 31.8125L27.6621 28.4922C29.4883 26.666 31.002 25.1719 31.0312 25.1719C31.0605 25.1719 31.9492 26.041 33.0039 27.0957ZM14.625 28.6875V30.25H9.9375H5.25V28.6875V27.125H9.9375H14.625V28.6875ZM42.75 28.6875V30.25H39.625H36.5V28.6875V27.125H39.625H42.75V28.6875ZM21.5781 31.2949L23.7949 33.5117L23.2578 33.7266C22.252 34.1367 21.4707 34.9668 21.0898 36.0313C20.9629 36.3926 20.875 36.5 20.7188 36.5C20.377 36.5 19.8691 36.7051 19.4883 36.998C19.0781 37.3203 18.5215 37.3691 17.8086 37.1641C17.2715 37.0078 16.4609 36.1973 16.3047 35.6602C16.2363 35.416 16.1875 34.6348 16.1875 33.707V32.1543L17.7207 30.6211C18.5703 29.7715 19.2832 29.0781 19.3125 29.0781C19.3418 29.0781 20.3574 30.0742 21.5781 31.2949ZM14.6445 33.834L14.6738 35.8652L14.9863 36.5195C15.1523 36.8809 15.4746 37.3691 15.6992 37.6133C16.1973 38.1602 17.2617 38.707 17.9746 38.7949L18.4922 38.8633L18.6094 39.3516C18.8145 40.2207 19.498 40.9043 20.377 41.1191L20.875 41.2363V41.7637C20.875 42.0469 20.9238 42.4668 20.9922 42.6914C21.1484 43.2285 21.959 44.0391 22.4961 44.1953C22.7695 44.2734 23.7656 44.3125 25.582 44.3125C28.7363 44.3125 28.9316 44.2734 29.5957 43.5313C29.8301 43.2773 30.0742 42.8867 30.1328 42.6719C30.2012 42.4375 30.25 41.6172 30.25 40.5723V38.8633L31.8906 38.834L33.5312 38.7949L34.2734 38.4336C35.1621 37.9941 35.709 37.4277 36.1387 36.5195L36.4512 35.8652L36.4805 33.834L36.5195 31.8125H39.6348H42.75V38.8438V45.875H24H5.25V38.8438V31.8125H9.92773H14.6055L14.6445 33.834ZM27.0664 35.0547C27.6035 35.2109 28.4141 36.0215 28.5703 36.5586C28.6484 36.832 28.6875 37.8184 28.6875 39.6152V42.2715L28.4434 42.5059L28.209 42.75H25.5625H22.916L22.6816 42.5059C22.4473 42.2813 22.4375 42.2227 22.4375 40.9434V39.625H21.5098C20.6504 39.625 20.5527 39.6055 20.3379 39.3809C20.0156 39.0684 20.0156 38.6191 20.3379 38.3066C20.5527 38.082 20.6504 38.0625 21.5098 38.0625H22.4375V37.5156C22.4375 37.2129 22.4863 36.7832 22.5547 36.5586C22.7012 36.0605 23.5215 35.2207 24 35.0645C24.4688 34.918 26.5684 34.9082 27.0664 35.0547Z" fill="#1E2533"/>
<path d="M19.3125 20.2207C18.834 20.377 18.0137 21.2168 17.8672 21.7148C17.5938 22.6328 17.7891 23.3652 18.4824 24.0488C19.4688 25.0449 20.7188 25.0449 21.7051 24.0488C22.7012 23.0625 22.7012 21.8125 21.7051 20.8262C21.0215 20.1328 20.2207 19.9375 19.3125 20.2207ZM20.6309 21.9004C21.1192 22.3789 20.7774 23.2187 20.0938 23.2187C19.6934 23.2187 19.3125 22.8379 19.3125 22.4375C19.3125 22.0371 19.6934 21.6562 20.0938 21.6562C20.2793 21.6562 20.4844 21.7441 20.6309 21.9004Z" fill="#FA7846"/>
<path d="M6.27539 28.1504C6.11914 28.2969 6.03125 28.502 6.03125 28.6875C6.03125 28.873 6.11914 29.0781 6.27539 29.2246C6.42188 29.3809 6.62695 29.4688 6.8125 29.4688C6.99805 29.4688 7.20312 29.3809 7.34961 29.2246C7.50586 29.0781 7.59375 28.873 7.59375 28.6875C7.59375 28.502 7.50586 28.2969 7.34961 28.1504C7.20312 27.9941 6.99805 27.9062 6.8125 27.9062C6.62695 27.9062 6.42188 27.9941 6.27539 28.1504Z" fill="#FA7846"/>
<path d="M8.61914 28.1504C8.46289 28.2969 8.375 28.502 8.375 28.6875C8.375 28.873 8.46289 29.0781 8.61914 29.2246C8.76562 29.3809 8.9707 29.4688 9.15625 29.4688C9.3418 29.4688 9.54688 29.3809 9.69336 29.2246C9.84961 29.0781 9.9375 28.873 9.9375 28.6875C9.9375 28.502 9.84961 28.2969 9.69336 28.1504C9.54688 27.9941 9.3418 27.9062 9.15625 27.9062C8.9707 27.9062 8.76562 27.9941 8.61914 28.1504Z" fill="#FA7846"/>
<path d="M10.9629 28.1504C10.8066 28.2969 10.7188 28.502 10.7188 28.6875C10.7188 28.873 10.8066 29.0781 10.9629 29.2246C11.1094 29.3809 11.3145 29.4688 11.5 29.4688C11.6855 29.4688 11.8906 29.3809 12.0371 29.2246C12.1934 29.0781 12.2812 28.873 12.2812 28.6875C12.2812 28.502 12.1934 28.2969 12.0371 28.1504C11.8906 27.9941 11.6855 27.9062 11.5 27.9062C11.3145 27.9062 11.1094 27.9941 10.9629 28.1504Z" fill="#FA7846"/>
<path d="M20.6895 2.26172L20.1719 2.78906L20.416 3.12109C20.5527 3.29688 20.7285 3.6582 20.7871 3.91211C20.9141 4.36133 20.9238 4.37109 21.3145 4.37109C21.5293 4.37109 21.8711 4.3418 22.0762 4.30273L22.4473 4.24414L22.3887 3.84375C22.2715 3.15039 21.5293 1.73438 21.2852 1.73438C21.2461 1.73438 20.9727 1.96875 20.6895 2.26172Z" fill="#FA7846"/>
<path d="M0.5625 5.64062V6.8125H1.34375H2.125V5.64062V4.46875H1.34375H0.5625V5.64062Z" fill="#FA7846"/>
<path d="M20.875 7.88672V9.05859H21.6562H22.4375V7.88672V6.71484H21.6562H20.875V7.88672Z" fill="#FA7846"/>
<path d="M0.5625 10.377V11.5977H1.34375H2.125V10.377V9.15625H1.34375H0.5625V10.377Z" fill="#FA7846"/>
<path d="M20.875 12.623V13.8438H21.6562H22.4375V12.623V11.4023H21.6562H20.875V12.623Z" fill="#FA7846"/>
<path d="M0.5625 15.1133V16.2852H1.34375H2.125V15.1133V13.9414H1.34375H0.5625V15.1133Z" fill="#FA7846"/>
<path d="M1.02148 18.6973L0.542969 18.7363L0.611328 19.1465C0.689453 19.6641 1.25586 20.8555 1.56836 21.1484L1.80273 21.3633L2.31055 20.7773L2.81836 20.1914L2.57422 19.8691C2.4375 19.6934 2.27148 19.3418 2.21289 19.0879C2.07617 18.5801 2.16406 18.6094 1.02148 18.6973Z" fill="#FA7846"/>
<path d="M4.46875 21.6562V22.4375H5.64062H6.8125V21.6562V20.875H5.64062H4.46875V21.6562Z" fill="#FA7846"/>
<path d="M9.15625 21.6562V22.4375H10.377H11.5977V21.6562V20.875H10.377H9.15625V21.6562Z" fill="#FA7846"/>
</svg>
