<svg width="50" height="36" viewBox="0 0 50 36" fill="none" xmlns="http://www.w3.org/2000/svg">
<path d="M10.4688 0.753902C9.7168 1.38867 4.78516 10.5098 2.88086 14.7773C1.04492 18.8984 0 22.4141 0 24.4355C0 25.9004 0.488281 27.9707 1.13281 29.25C2.58789 32.1406 5.25391 34.3184 8.34961 35.1582C9.24805 35.4023 9.47266 35.4219 11.1328 35.4219C12.7734 35.4219 13.0273 35.4023 13.8867 35.168C15.918 34.6113 17.5293 33.6836 19.0039 32.2187C20.459 30.7539 21.4844 28.9473 21.9727 26.9844C22.2656 25.793 22.334 23.8789 22.1289 22.7363C21.6504 20.1387 20.4004 16.7793 18.3008 12.4336C15.9766 7.60937 12.2363 0.939449 11.709 0.666012C11.2891 0.441402 10.8008 0.480465 10.4688 0.753902ZM13.1152 7.30664C16.709 13.8105 19.3262 19.9043 19.8828 23.0293C20.2246 24.9824 19.8633 26.9941 18.8184 28.8398C18.2422 29.8555 16.6309 31.4668 15.5957 32.0527C10.9766 34.6504 5.29297 32.8242 3.06641 28.0098C2.70508 27.2187 2.39258 26.0273 2.29492 25.0312C2.08008 22.8535 3.35938 18.9375 6.19141 13.0684C7.34375 10.6855 9.38477 6.85742 10.7617 4.48437L11.1523 3.82031L11.5918 4.58203C11.8359 5.01171 12.5195 6.23242 13.1152 7.30664Z" fill="#FC8C5F"/>
<path d="M15.5078 23.4297C15.1465 23.625 15.0586 23.8105 14.8926 24.7871C14.8047 25.2559 14.6387 25.8418 14.5019 26.0957C13.9844 27.1309 12.7637 27.9805 11.6309 28.1074C10.459 28.2441 10.0586 28.5566 10.0586 29.3281C10.0586 29.6602 10.1172 29.7969 10.3906 30.0703C10.6934 30.373 10.7715 30.4023 11.3184 30.4023C12.959 30.4023 14.707 29.543 15.8203 28.1953C16.8652 26.9258 17.4902 24.7285 17.0508 23.8691C16.7578 23.3125 16.0742 23.1172 15.5078 23.4297Z" fill="#1E2533"/>
<path d="M24.4336 0.646225C23.9355 0.8806 18.8477 9.99193 18.8477 10.6267C18.8477 11.2224 19.3848 11.7497 19.9902 11.7497C20.5859 11.7497 20.8008 11.4861 21.9141 9.39623C23.2617 6.86693 24.9219 3.93724 25.0098 3.93724C25.0488 3.93724 25.5176 4.71849 26.0547 5.66576C30.1562 12.9509 32.9004 19.074 33.6621 22.6189C33.9062 23.7517 33.8867 25.5095 33.6035 26.5447C33.1738 28.156 32.2754 29.6794 31.084 30.7927C29.4531 32.3357 27.6953 33.0974 25.4883 33.2048C24.1309 33.2732 23.2617 33.1462 21.9434 32.7068C21.1719 32.4431 20.8984 32.3943 20.6641 32.4626C20.2051 32.5994 19.9121 32.9509 19.8535 33.449C19.7852 34.0642 20.0977 34.406 21.084 34.7869C22.4512 35.3142 23.6719 35.5095 25.3418 35.4509C27.5781 35.3728 29.3359 34.8357 31.1035 33.6736C33.5156 32.0818 35.127 29.7673 35.8594 26.8376C36.1719 25.5681 36.1719 23.5271 35.8594 22.1111C35.4492 20.2947 34.6484 17.9704 33.5254 15.363C31.6602 11.0173 26.1914 0.929428 25.5371 0.636459C25.2246 0.489975 24.7363 0.499741 24.4336 0.646225Z" fill="#FA7846"/>
<path d="M38.2715 0.666073C37.7441 0.949276 32.7148 9.96295 32.7148 10.6172C32.7148 11.4278 33.5742 11.9747 34.3262 11.6329C34.6289 11.4962 34.8828 11.0958 36.084 8.82037C36.6113 7.82428 37.4512 6.30084 37.9492 5.42193L38.8477 3.83014L39.2383 4.4942C42.998 10.9395 46.377 18.1758 47.3047 21.7501C47.8027 23.6837 47.8418 24.8165 47.4512 26.4766C46.5527 30.3731 42.9199 33.2344 38.877 33.2344C37.793 33.2344 37.0117 33.0977 35.8691 32.7266C35.0195 32.4532 34.9219 32.4434 34.5996 32.5606C34.1504 32.7364 33.8672 33.1075 33.8574 33.5567C33.8379 34.3184 34.3262 34.67 36.084 35.1583C36.9922 35.4122 37.1875 35.4317 38.8672 35.4219C40.5176 35.4219 40.7617 35.4024 41.6504 35.1583C44.7461 34.3184 47.4121 32.1407 48.8672 29.2501C49.5117 27.9708 50 25.9004 50 24.4356C50 22.4141 48.9551 18.8985 47.1191 14.7774C45.2148 10.5098 40.2832 1.38873 39.5312 0.753963C39.1992 0.480526 38.6719 0.441463 38.2715 0.666073Z" fill="#FC8C5F"/>
<path d="M29.2187 23.5463C28.9062 23.8393 28.8867 23.8979 28.7207 24.933C28.5839 25.7534 28.2324 26.4467 27.666 27.0229C26.9824 27.726 26.3867 27.9799 24.8828 28.2045C23.8769 28.3608 23.5644 29.5131 24.3359 30.1577C24.6386 30.4213 24.6875 30.4213 25.4882 30.3725C27.0019 30.2748 28.3007 29.6498 29.3945 28.478C30.9863 26.769 31.5918 23.9955 30.4785 23.4291C30.0195 23.185 29.5605 23.2338 29.2187 23.5463Z" fill="#1E2533"/>
<path d="M43.0273 23.5853C42.7539 23.8685 42.6953 24.015 42.5976 24.7376C42.4609 25.7142 42.1582 26.3587 41.5331 27.0033C40.957 27.5892 40.3417 27.9115 39.5507 28.0579C38.164 28.3021 37.7831 28.556 37.7636 29.2591C37.7343 30.304 38.6621 30.6458 40.371 30.2064C41.4843 29.9232 42.2167 29.4935 43.1152 28.5951C44.1796 27.5306 44.7363 26.3685 44.8828 24.8841C44.9902 23.8685 44.5507 23.2728 43.6914 23.2728C43.4277 23.2728 43.2617 23.3509 43.0273 23.5853Z" fill="#1E2533"/>
</svg>
