<svg width="34" height="50" viewBox="0 0 34 50" fill="none" xmlns="http://www.w3.org/2000/svg">
<path d="M15.1739 0.146236C14.5978 0.390377 11.8146 2.50952 10.8087 3.44702C10.3888 3.84741 10.3497 4.19897 10.7013 4.54077C11.1212 4.97046 11.3653 4.88256 12.6544 3.80835C14.0411 2.64624 15.4962 1.58178 15.8087 1.50366C16.1603 1.406 16.2872 1.61108 16.4044 2.44116C16.6485 4.06225 17.2833 5.71264 18.172 7.04077C18.7286 7.86108 20.4571 9.57006 21.4435 10.2732C21.8732 10.5759 23.1915 11.4451 24.3732 12.2068C25.5548 12.9685 26.8341 13.8279 27.2149 14.1111C30.0274 16.2205 31.3556 18.5837 31.5216 21.7771C31.5802 22.9392 31.4923 24.6091 31.3653 24.6091C31.3263 24.6091 31.0431 24.2478 30.7403 23.7986C30.4376 23.3591 29.8224 22.5779 29.3731 22.0701C28.6212 21.2205 28.5431 21.0837 28.3966 20.4587C27.9278 18.5349 26.8829 17.3435 23.9825 15.449C20.2423 12.9978 19.5782 12.5388 18.7872 11.8845C17.547 10.8494 16.3165 9.51147 15.6427 8.46655C14.8224 7.20678 14.6857 7.05053 14.3243 6.94311C13.6896 6.7771 13.504 6.88452 12.1173 8.29077C10.2228 10.2048 8.963 11.8162 7.83995 13.7693C6.58018 15.9568 5.72081 18.4665 5.50596 20.5369C5.44737 21.1228 5.42784 21.1619 4.62706 22.0701C4.17784 22.5779 3.56261 23.3591 3.25987 23.7986C2.95714 24.2478 2.67393 24.6091 2.64464 24.6091C2.53721 24.6091 2.44932 23.5349 2.44932 22.3533C2.44932 17.1482 4.85167 11.7283 9.25596 7.01147C9.67589 6.56225 9.77354 6.39624 9.77354 6.11303C9.77354 5.70288 9.47081 5.37085 9.08018 5.37085C8.50401 5.37085 5.88682 8.50561 4.35362 11.0349C1.44347 15.8201 0.300887 21.5525 1.37511 26.0544L1.55089 26.8064L1.17979 27.9294C-0.0311441 31.5525 0.0274497 35.6443 1.32628 39.072C2.92784 43.2517 5.87706 46.4646 9.89073 48.3884C12.1661 49.4724 14.2755 49.9412 17.0001 49.9412C19.2657 49.9509 20.8966 49.6775 22.8107 48.9548C24.2853 48.408 26.5216 47.1482 27.2931 46.4353C27.6446 46.113 27.6446 45.5955 27.2931 45.322C26.9317 45.0388 26.7657 45.0583 26.17 45.4783C24.9298 46.3376 24.6075 46.5232 23.5919 47.0212C19.0802 49.2087 13.5919 48.9841 9.30479 46.4353C8.09385 45.7126 7.27354 45.0681 6.16026 43.9451C4.08018 41.8747 2.713 39.3259 2.03917 36.2595C1.86339 35.449 1.82432 34.99 1.82432 33.3005C1.82432 31.0349 1.96104 30.156 2.60557 28.3103C3.39659 26.0349 4.48057 24.3162 6.24815 22.5583C8.48448 20.322 10.8575 19.0232 13.9435 18.3396C14.7638 18.154 15.1935 18.1248 17.0001 18.1248C18.8067 18.1248 19.2364 18.154 20.0567 18.3396C23.1427 19.0232 25.5157 20.322 27.7521 22.5583C29.5196 24.3162 30.6036 26.0349 31.3946 28.3103C32.0294 30.1267 32.1759 31.0447 32.1759 33.2517C32.1759 34.99 32.1466 35.3318 31.922 36.3767C31.3946 38.8181 30.3009 41.113 28.7677 42.9685C28.2306 43.613 28.1524 43.8572 28.3673 44.199C28.5626 44.4919 28.8556 44.6091 29.1876 44.5505C29.6368 44.4626 31.0724 42.4607 31.9317 40.7322C33.2306 38.1345 33.7774 35.5759 33.67 32.6658C33.6114 30.9373 33.3575 29.531 32.8204 27.9294L32.4493 26.8064L32.6251 26.0544C33.0548 24.2283 33.1231 21.5427 32.7716 19.8728C32.2931 17.6072 31.4532 16.0837 29.7052 14.3552C28.5724 13.2322 27.5763 12.4998 24.6661 10.6443C20.0177 7.6853 18.5138 5.84936 17.879 2.3435C17.7814 1.75756 17.6251 1.1521 17.547 1.00561C17.1173 0.175533 16.0138 -0.224857 15.1739 0.146236ZM14.4903 9.39428C15.8868 11.4451 17.7032 13.115 20.4962 14.9216C24.0314 17.2165 24.7931 17.7439 25.4571 18.3787C25.8575 18.7693 26.2384 19.1599 26.297 19.2673C26.4044 19.4822 26.4435 19.5017 25.6036 18.9646C24.2853 18.1248 22.1368 17.2947 20.2228 16.8748C19.3243 16.6892 18.9239 16.6599 17.0001 16.6599C15.0763 16.6599 14.6759 16.6892 13.7774 16.8748C11.6681 17.3337 9.63682 18.154 8.05479 19.1892C7.58604 19.4919 7.18565 19.7165 7.15635 19.6873C7.06846 19.5994 7.52745 17.9783 7.9376 16.9431C8.66026 15.1072 9.70518 13.3494 11.2189 11.4646C12.0099 10.4685 13.7384 8.5935 13.8653 8.5935C13.9044 8.5935 14.1876 8.95483 14.4903 9.39428Z" fill="#1E2533"/>
<path d="M5.64275 1.95313C5.03728 2.43164 4.8615 4.04297 5.29119 5.12695C5.55486 5.78125 5.86736 6.02539 6.28728 5.91797C6.43377 5.88867 6.61931 5.74219 6.71697 5.60547C6.85369 5.38086 6.86345 5.29297 6.75603 4.95117C6.4533 3.92578 6.43377 3.68164 6.59978 3.22266C6.89275 2.45117 6.89275 2.28516 6.61931 2.01172C6.31658 1.70899 5.98455 1.68945 5.64275 1.95313Z" fill="#FA7846"/>
<path d="M21.7852 3.12509C21.5215 3.38876 21.5215 4.04306 21.7949 4.48251C21.961 4.75595 21.9903 4.9122 21.9317 5.21493C21.7559 6.24032 21.7559 6.22079 21.9707 6.43564C22.2344 6.69931 22.7715 6.70907 22.9961 6.45517C23.4844 5.91806 23.5723 4.82431 23.2012 4.02353C23.0645 3.73056 22.957 3.43759 22.957 3.36923C22.957 3.17392 22.5664 2.92978 22.2539 2.92978C22.0977 2.92978 21.8926 3.01767 21.7852 3.12509Z" fill="#FA7846"/>
<path d="M28.6016 5.02913C28.3965 5.14632 28.3184 5.2928 28.2305 5.72249C28.084 6.42562 28.1719 7.02132 28.5918 8.24202C28.9922 9.39437 28.9922 9.84359 28.5723 10.8397C28.3282 11.4256 28.3184 11.4842 28.4551 11.7772C28.6504 12.1776 29.0996 12.3045 29.461 12.0604C29.7832 11.8455 30.1543 11.0155 30.291 10.1659C30.4278 9.3553 30.3106 8.54476 29.92 7.60726C29.7149 7.10921 29.666 6.81624 29.6563 6.13265C29.6465 5.21468 29.5684 5.0389 29.1094 4.94124C28.9727 4.91194 28.7481 4.95101 28.6016 5.02913Z" fill="#FA7846"/>
<path d="M1.16017 8.21277C0.720713 8.46668 0.720713 9.58972 1.1504 10.7421C1.41407 11.4354 1.40431 11.9628 1.13087 12.4999C0.916026 12.91 0.945323 13.3104 1.20899 13.5546C1.69728 14.0136 2.22462 13.7596 2.55665 12.91C2.87892 12.0897 2.85938 11.1034 2.51759 10.1366C2.3711 9.72644 2.25392 9.23816 2.25392 9.05261C2.25392 8.5741 2.17579 8.40808 1.85353 8.25183C1.53126 8.08582 1.39454 8.07605 1.16017 8.21277Z" fill="#FA7846"/>
<path d="M15.584 20.7129C10.6816 21.25 6.44336 24.7363 4.94922 29.4434C4.54883 30.7129 4.38281 31.8555 4.38281 33.3008C4.39258 35.918 5.06641 38.1445 6.53125 40.3809C7.11719 41.2793 8.94336 43.1055 9.90039 43.7402C12.0879 45.2051 14.373 45.8984 17 45.8984C20.3496 45.8984 23.2695 44.7363 25.6719 42.4414C26.7852 41.377 27.5762 40.332 28.2207 39.0723C29.207 37.1484 29.6074 35.4687 29.6172 33.252C29.6172 29.834 28.3379 26.7578 25.8867 24.3164C24.4023 22.832 22.5176 21.709 20.5742 21.1426C19.6465 20.8789 19.4512 20.8887 19.1484 21.2207C18.6699 21.7187 19.0508 22.2461 20.125 22.5586C23.1523 23.4375 25.5742 25.4687 27.0098 28.3203C27.8105 29.9121 28.1523 31.416 28.1523 33.3008C28.1426 38.457 24.793 42.7441 19.666 44.1602C19.0117 44.3359 18.6406 44.375 17.0488 44.375C14.9785 44.3848 14.3535 44.2676 12.7227 43.6035C10.3887 42.6562 8.16211 40.5859 7.00976 38.3105C5.71094 35.752 5.47656 32.4219 6.4043 29.6973C7.03906 27.8223 8.38672 25.8789 9.91992 24.6484C11.7266 23.1836 13.6406 22.3926 15.9648 22.1582C17.166 22.0312 17.4883 21.875 17.4883 21.377C17.4883 20.7227 17 20.5469 15.584 20.7129Z" fill="#FA7846"/>
<path d="M16.5118 24.1016C16.3361 24.2383 16.297 24.3848 16.2872 24.7949C16.2775 25.2539 16.3165 25.3516 16.5509 25.5469C16.6974 25.6738 16.9025 25.7812 17.0001 25.7812C17.0978 25.7812 17.3029 25.6738 17.4493 25.5469C17.6837 25.3516 17.7228 25.2539 17.713 24.7949C17.7032 24.209 17.4786 23.9258 17.0001 23.9258C16.8536 23.9258 16.629 24.0039 16.5118 24.1016Z" fill="#FA7846"/>
<path d="M10.3595 26.6596C10.0567 26.9624 10.1056 27.3823 10.4864 27.8022C10.9063 28.2612 11.3458 28.2905 11.6973 27.8901C12.0098 27.5288 11.9805 27.3139 11.5704 26.8549C11.1602 26.396 10.6915 26.3276 10.3595 26.6596Z" fill="#FA7846"/>
<path d="M22.4297 26.8549C22.0195 27.3139 21.9902 27.5288 22.3027 27.8901C22.6543 28.2905 23.0937 28.2612 23.5137 27.8022C24.0703 27.187 23.8555 26.4643 23.1133 26.4643C22.8496 26.4643 22.7129 26.5424 22.4297 26.8549Z" fill="#FA7846"/>
<path d="M16.502 28.0176L16.2676 28.2031V30.9082V33.6133L16.502 33.7988C16.707 33.9648 16.9023 33.9844 18.2695 33.9844C19.6855 33.9844 19.8125 33.9648 19.9785 33.7891C20.252 33.4863 20.2129 33.0176 19.8906 32.7441C19.6562 32.5391 19.5293 32.5195 18.709 32.5195H17.8008L17.7617 30.3613C17.7324 28.2324 17.7324 28.2031 17.498 28.0176C17.2051 27.7832 16.7949 27.7832 16.502 28.0176Z" fill="#FA7846"/>
<path d="M8.04501 32.6172C7.61532 32.793 7.48837 33.457 7.8204 33.7891C7.96688 33.9355 8.14267 33.9844 8.54306 33.9844C9.00204 33.9844 9.0997 33.9453 9.27548 33.7305C9.60751 33.3105 9.52938 32.8906 9.08017 32.666C8.77743 32.5 8.36728 32.4902 8.04501 32.6172Z" fill="#FA7846"/>
<path d="M24.959 32.6269C24.4805 32.9004 24.3926 33.3105 24.7246 33.7305C24.9004 33.9453 24.9981 33.9844 25.4571 33.9844C25.8574 33.9844 26.0332 33.9355 26.1797 33.7891C26.4239 33.5449 26.4336 33.0957 26.1992 32.8125C25.9942 32.5586 25.2617 32.4512 24.959 32.6269Z" fill="#FA7846"/>
<path d="M10.5548 38.7305C10.086 39.1602 10.0274 39.5802 10.3888 39.922C10.7013 40.2149 11.0723 40.1954 11.4727 39.8438C11.8829 39.4825 11.9708 39.1505 11.7852 38.7794C11.5118 38.2618 11.0919 38.2423 10.5548 38.7305Z" fill="#FA7846"/>
<path d="M22.3615 38.5645C21.9904 38.8574 22.049 39.3945 22.4982 39.8047C22.9279 40.2051 23.3186 40.2344 23.6213 39.9121C23.9631 39.5508 23.9045 39.1504 23.4455 38.7305C23.0061 38.3399 22.7033 38.291 22.3615 38.5645Z" fill="#FA7846"/>
<path d="M16.5899 40.9278C16.1016 41.211 16.209 42.4317 16.7364 42.6172C17.1563 42.7735 17.5176 42.5879 17.6641 42.1485C17.9473 41.2598 17.293 40.5078 16.5899 40.9278Z" fill="#FA7846"/>
</svg>
