<svg width="38" height="50" viewBox="0 0 38 50" fill="none" xmlns="http://www.w3.org/2000/svg">
<path d="M18.0723 0.17617C17.8086 0.273827 17.0371 0.71328 16.373 1.1625C15.709 1.61172 15.0254 2.03164 14.8496 2.1C14.5957 2.20742 14.2344 2.21719 12.9258 2.1293C11.041 2.01211 10.6309 2.05117 9.9375 2.45156C9.2832 2.82265 8.96094 3.27187 8.23828 4.77578C7.92578 5.44961 7.57422 6.11367 7.45703 6.26992C7.33008 6.46523 6.76367 6.80703 5.68945 7.34414C3.0625 8.65273 2.84766 9.03359 3.01367 12.1293L3.11133 13.848L2.17383 15.3031C1.03125 17.0707 0.933594 17.2953 0.933594 18.1351C0.933594 18.9652 1.05078 19.2094 2.18359 20.9281L3.08203 22.2855L3.07227 22.9301C3.07227 23.2914 3.0332 24.0824 2.99414 24.6879C2.81836 27.0707 3.18945 27.6371 5.70898 28.8969C6.74414 29.4242 7.33008 29.766 7.45703 29.9516C7.56445 30.098 7.94531 30.8207 8.30664 31.5433C8.6582 32.266 9.05859 32.9984 9.18555 33.1547L9.41016 33.4574L6.7832 39.1019C5.33789 42.1976 4.15625 44.7953 4.15625 44.8734C4.15625 45.1664 4.39062 45.4984 4.66406 45.6156C5.01562 45.7621 4.84961 45.8305 8.93164 43.6918C10.5039 42.8617 11.8223 42.1976 11.8418 42.2269C11.8711 42.2562 12.252 43.9359 12.7012 45.9574C13.3848 49.1215 13.5312 49.6683 13.7266 49.8246C14.0293 50.0687 14.4785 50.0492 14.7129 49.7758C14.8203 49.6586 15.8164 47.6176 16.9199 45.2348C18.0332 42.8617 18.9609 40.9183 19 40.9183C19.0391 40.9183 19.9668 42.8617 21.0801 45.2348C22.1836 47.6176 23.1797 49.6586 23.2871 49.7758C23.5215 50.0492 23.9707 50.0687 24.2734 49.8246C24.4688 49.6683 24.6152 49.1215 25.2988 45.9574C25.748 43.9359 26.1289 42.2562 26.1582 42.2269C26.1875 42.1976 27.5449 42.8715 29.1758 43.7308C33.1895 45.85 32.9844 45.7621 33.3359 45.6156C33.6094 45.4984 33.8438 45.1664 33.8438 44.8734C33.8438 44.8051 32.6621 42.1976 31.2168 39.1019L28.5898 33.4574L28.8145 33.1644C28.9414 32.9984 29.3418 32.266 29.6934 31.5433C30.0547 30.8207 30.4355 30.098 30.543 29.9516C30.6699 29.766 31.2559 29.4242 32.291 28.8969C34.8105 27.6371 35.1816 27.0707 35.0059 24.6879C34.9668 24.0824 34.9277 23.2914 34.9277 22.9301L34.918 22.2855L35.8164 20.9281C36.9492 19.2094 37.0664 18.9652 37.0664 18.1351C37.0664 17.2953 36.9688 17.0707 35.8262 15.3031L34.8887 13.848L34.9863 12.1293C35.1523 9.03359 34.9375 8.65273 32.3105 7.34414C31.207 6.7875 30.6797 6.46523 30.5332 6.26015C30.416 6.1039 30.0645 5.43008 29.752 4.76601C29.0391 3.27187 28.707 2.82265 28.0625 2.45156C27.3691 2.05117 26.959 2.01211 25.0742 2.1293C23.7656 2.21719 23.4043 2.20742 23.1504 2.1C22.9746 2.03164 22.291 1.61172 21.627 1.1625C20.3184 0.283592 19.6934 0.0101547 19 0.0101547C18.7559 0.0101547 18.3457 0.0882797 18.0723 0.17617ZM20.7285 2.46133C22.8281 3.84805 22.7793 3.83828 25.543 3.68203C27.4473 3.56484 27.3691 3.51601 28.4922 5.71328C29.0488 6.8168 29.4492 7.47109 29.6641 7.64687C29.8398 7.80312 30.6699 8.27187 31.5 8.6918C32.3301 9.11172 33.0918 9.5414 33.1895 9.63906C33.4824 9.97109 33.5215 10.3422 33.4141 12.1C33.3457 13.3793 33.3555 13.9066 33.4434 14.2484C33.5117 14.5023 33.9121 15.225 34.3711 15.9184C35.3867 17.4516 35.5039 17.6762 35.5039 18.1156C35.5039 18.5551 35.3867 18.7797 34.3711 20.3129C33.9121 21.0062 33.5117 21.7289 33.4434 21.9828C33.3555 22.3246 33.3457 22.8519 33.4141 24.1312C33.5215 25.8891 33.4824 26.2601 33.1895 26.5922C33.0918 26.6898 32.3594 27.1098 31.5488 27.5101C30.748 27.9203 29.918 28.3793 29.7227 28.5355C29.4395 28.7504 29.166 29.1996 28.5215 30.4691C27.7109 32.0805 27.4277 32.4613 26.9492 32.5785C26.8223 32.6078 25.9629 32.5883 25.0352 32.5297C22.8867 32.393 22.7988 32.4125 20.8945 33.6723C18.9609 34.9418 19.0391 34.9418 17.1055 33.6723C15.2012 32.4125 15.0938 32.3832 12.9551 32.5297C12.0371 32.5883 11.1777 32.6078 11.0508 32.5785C10.5723 32.4613 10.2891 32.0902 9.47852 30.4691C8.83398 29.1996 8.56055 28.7504 8.27734 28.5355C8.08203 28.3793 7.26172 27.9203 6.45117 27.5101C5.65039 27.1098 4.9082 26.6898 4.81055 26.5922C4.51758 26.2601 4.47852 25.8891 4.58594 24.1312C4.6543 22.8519 4.64453 22.3246 4.55664 21.9828C4.48828 21.7289 4.08789 21.0062 3.62891 20.3129C2.61328 18.7797 2.49609 18.5551 2.49609 18.1156C2.49609 17.6762 2.61328 17.4516 3.62891 15.9184C4.08789 15.225 4.48828 14.5023 4.55664 14.2484C4.64453 13.9066 4.6543 13.3793 4.58594 12.1C4.47852 10.3422 4.51758 9.97109 4.81055 9.64883C4.9082 9.5414 5.67969 9.10195 6.53906 8.67226C7.52539 8.17422 8.20898 7.7543 8.43359 7.52969C8.61914 7.33437 9.12695 6.475 9.56641 5.61562C10.6211 3.52578 10.5625 3.57461 12.457 3.68203C15.2207 3.83828 15.1719 3.84805 17.2715 2.46133C19.0488 1.27969 18.9512 1.27969 20.7285 2.46133ZM14.8398 34.1215C15.0156 34.1996 15.709 34.6195 16.3633 35.059C17.7402 35.9867 18.043 36.1234 18.8145 36.2113L19.3809 36.2797L16.9883 41.4066C15.6699 44.2289 14.5566 46.5629 14.5176 46.6117C14.4785 46.6508 14.2344 45.7035 13.9805 44.5121C13.209 40.9281 13.1309 40.6156 12.9355 40.4203C12.5742 40.059 12.2324 40.1762 9.43945 41.6508C7.96484 42.432 6.74414 43.0473 6.72461 43.0277C6.70508 43.0082 7.60352 41.0258 8.73633 38.6137L10.7773 34.2289L12.3691 34.1215C13.248 34.0629 14.0977 34.0043 14.2441 34.0043C14.3906 33.9945 14.6641 34.0433 14.8398 34.1215ZM26.168 34.1605L27.2227 34.2289L29.2637 38.6137C30.3965 41.0258 31.2949 43.0082 31.2852 43.0277C31.2656 43.0473 30.0449 42.4223 28.5703 41.6508C25.9531 40.2738 25.5527 40.1176 25.1621 40.3324C24.8984 40.4691 24.8301 40.7133 24.166 43.8285C23.8242 45.4008 23.5215 46.6508 23.4824 46.6117C23.4434 46.5629 22.6133 44.8246 21.6367 42.7348L19.8594 38.9359L20.7676 36.9828L21.6855 35.0394L22.252 34.6488C23.1504 34.0433 23.3359 33.9848 24.2734 34.0433C24.7324 34.0726 25.582 34.1312 26.168 34.1605Z" fill="#1E2533"/>
<path d="M17.0078 6.79736C14.5469 7.24658 12.3789 8.43799 10.6016 10.3228C5.92385 15.2935 6.65627 23.2134 12.1641 27.3345C16.1778 30.3325 21.8028 30.3325 25.836 27.3345C30.2793 24.0337 31.7442 18.0083 29.3125 13.0767C27.9356 10.3032 25.543 8.20361 22.6524 7.23681C20.9141 6.65088 18.7461 6.48486 17.0078 6.79736ZM21.4414 8.48681C24.6055 9.31689 27.1836 11.6411 28.2871 14.6489C28.7364 15.8989 28.8828 16.7192 28.8926 18.0669C28.9024 19.7954 28.6192 21.0063 27.8282 22.6177C26.6563 25.0005 24.2735 26.9438 21.5879 27.6958C20.4844 28.0083 18.6778 28.1157 17.5645 27.9302C15.3867 27.5884 13.4727 26.6216 11.9688 25.1079C8.95119 22.0708 8.22854 17.5786 10.1133 13.7212C11.5098 10.8696 14.3809 8.77978 17.584 8.27197C17.75 8.24267 18.4922 8.23291 19.2442 8.24267C20.2793 8.26221 20.8164 8.33056 21.4414 8.48681Z" fill="#FA7846"/>
<path d="M18.6387 10.0781C18.5117 10.1367 18.2871 10.459 18.1114 10.8301C17.9453 11.1816 17.4571 12.2168 17.0274 13.1348C16.5977 14.043 16.2364 14.8047 16.2168 14.8242C16.2071 14.834 15.1231 14.9805 13.8145 15.1465C12.5059 15.3027 11.2852 15.498 11.1192 15.5762C10.7774 15.7324 10.6407 16.0449 10.7383 16.4453C10.7676 16.582 11.5879 17.4219 12.6524 18.4082C14.1465 19.8047 14.4981 20.1855 14.459 20.3516C14.0391 22.2559 13.5508 25.1465 13.6289 25.3418C13.7266 25.6055 14.0879 25.8789 14.3418 25.8789C14.4492 25.8789 15.5332 25.3223 16.7637 24.6484L19 23.418L21.2364 24.6484C22.4668 25.3223 23.5606 25.8789 23.6582 25.8789C23.9121 25.8789 24.2735 25.6055 24.3711 25.3418C24.4492 25.1465 23.961 22.2559 23.541 20.3516C23.502 20.1855 23.8535 19.8047 25.3477 18.4082C26.4121 17.4219 27.2324 16.582 27.2617 16.4453C27.3594 16.0449 27.2227 15.7324 26.8809 15.5762C26.7149 15.498 25.4942 15.3027 24.1856 15.1465C22.877 14.9805 21.793 14.834 21.7832 14.8242C21.7637 14.8047 21.4024 14.043 20.9727 13.1348C20.543 12.2168 20.0645 11.1816 19.8887 10.8301C19.5078 10.0293 19.166 9.82422 18.6387 10.0781ZM19.8203 14.3555C20.2403 15.2637 20.6602 16.0742 20.7578 16.1621C20.875 16.2695 21.5196 16.3867 22.8086 16.5527C23.8438 16.6895 24.7031 16.8066 24.7227 16.8164C24.7324 16.8359 24.1367 17.4121 23.3946 18.1055C22.6426 18.7988 21.9981 19.4727 21.9492 19.6191C21.8906 19.8047 21.959 20.3809 22.2031 21.6602C22.3887 22.6367 22.5156 23.4668 22.4961 23.4961C22.4668 23.5156 21.7344 23.1445 20.8653 22.6562C19.8985 22.1191 19.1856 21.7773 19.0098 21.7773C18.834 21.7773 18.1016 22.1191 17.1348 22.6562C16.2656 23.1445 15.5332 23.5156 15.5039 23.4863C15.4844 23.4668 15.6114 22.6367 15.7969 21.6602C16.041 20.3809 16.1094 19.8047 16.0508 19.6191C16.002 19.4727 15.3574 18.7988 14.6055 18.1055C13.8633 17.4121 13.2676 16.8359 13.2774 16.8164C13.2969 16.8066 14.1563 16.6895 15.1914 16.5527C16.4805 16.3867 17.125 16.2695 17.2422 16.1621C17.3399 16.0742 17.7598 15.2637 18.1797 14.3555C18.5996 13.4375 18.9707 12.6953 19 12.6953C19.0293 12.6953 19.4004 13.4375 19.8203 14.3555Z" fill="#FA7846"/>
</svg>
