<svg width="46" height="50" viewBox="0 0 46 50" fill="none" xmlns="http://www.w3.org/2000/svg">
<path d="M26.9746 0.400391C26.6718 0.625 26.2226 1.08398 25.9785 1.42578C25.7246 1.76758 25.4902 2.05078 25.4511 2.05078C25.4121 2.05078 24.8945 1.83594 24.2988 1.57227C22.1894 0.625 21.125 0.390625 19.6894 0.585938C16.9062 0.947266 14.4258 2.61719 13.2929 4.89258C12.5996 6.26953 12.4922 7.4707 12.9511 8.78906C13.1074 9.25781 13.1269 9.4043 13.0293 9.58008C12.8242 9.98047 12.3652 11.4355 12.1699 12.334C11.6719 14.6484 11.7109 17.6074 12.2871 20.0977C12.4043 20.6055 12.4043 20.6445 12.1113 21.2207C11.8476 21.7676 11.8183 21.9043 11.8183 22.8027C11.8183 23.7109 11.8379 23.8281 12.1406 24.4336C12.6875 25.5371 13.6836 26.2793 14.914 26.4844L15.5293 26.582L15.9004 27.3926C16.1054 27.832 16.457 28.4766 16.6816 28.8184C17.1699 29.5703 18.5761 30.9961 19.2207 31.3965L19.6894 31.6895L19.6601 32.2168L19.6308 32.7441L17.4531 33.9941C13.6836 36.1523 10.0996 38.4277 8.40037 39.7363C7.66795 40.3027 7.35545 40.4395 7.23826 40.2441C7.1992 40.1953 7.35545 37.5586 7.58005 34.3848L7.98045 28.623L7.34568 27.0898L6.72068 25.5664L7.04295 25.0293C7.5117 24.248 7.62888 23.5645 7.43357 22.7832C7.18943 21.7773 5.47068 18.4668 4.9824 18.0664C4.6992 17.832 4.24021 17.9004 3.96677 18.2422C3.59568 18.6914 2.41404 20.8008 2.03318 21.709C1.39842 23.2129 1.39842 23.9648 2.04295 25.0293L2.36521 25.5566L1.74021 27.0996L1.11521 28.6328L1.22263 30.3516C1.34959 32.3828 1.35935 32.4609 1.61326 32.7148C1.86717 32.9688 2.20896 32.959 2.54099 32.6953L2.81443 32.4902L2.73631 30.9863L2.66795 29.4922H4.53318H6.39841V29.8535C6.39841 30.2734 5.80271 38.9062 5.77341 38.9355C5.76365 38.9551 5.59763 38.916 5.41209 38.8672C4.9531 38.7305 4.3867 38.75 3.79099 38.8965L3.30271 39.0234L3.18552 37.168C3.12693 36.1426 3.01951 35.127 2.95115 34.9121C2.8242 34.4824 2.50193 34.2969 2.06248 34.4141C1.56443 34.541 1.53513 34.7852 1.73045 37.5488L1.89646 40.0391L1.5449 40.5078C1.08592 41.1035 0.656228 42.0605 0.480447 42.8613C0.304666 43.7109 0.314432 45.2051 0.499978 45.9961C0.871072 47.5781 1.93553 49.0332 3.15623 49.6289L3.81052 49.9512L24.4746 49.9805L45.1386 50L45.4023 49.7949C45.6465 49.5996 45.6562 49.5508 45.6562 48.6621C45.6562 47.4805 45.4218 45.8594 45.1093 44.9219C44.3086 42.5098 42.8633 40.9082 39.289 38.4375C38.1855 37.6758 37.8535 37.5977 37.4824 38.0273C37.0527 38.5352 37.1797 38.7695 38.4101 39.6191C41.3496 41.6504 42.4531 42.7344 43.2832 44.375C43.7031 45.2051 44.0547 46.5723 44.1523 47.6953L44.2207 48.5352H40.9883H37.7461L37.707 48.3105C37.6777 48.1934 37.6289 47.4805 37.5996 46.7285C37.5605 45.9766 37.4824 45.2539 37.4238 45.1172C37.1992 44.6484 36.3789 44.6094 36.1738 45.0586C36.0957 45.2148 36.0957 45.8008 36.1543 46.9141L36.2324 48.5352H24.7285H13.2246L13.2734 48.0273C13.3027 47.7441 13.3515 46.9922 13.3906 46.3574C13.4492 45.2441 13.4394 45.1953 13.2246 44.9609C12.9414 44.6582 12.5215 44.6582 12.2187 44.9512C12.0136 45.1562 11.9746 45.3125 11.9258 46.25C11.8867 46.8359 11.8379 47.5879 11.8086 47.9199L11.75 48.5352H9.51365C8.28318 48.5352 7.27732 48.5156 7.27732 48.4863C7.27732 48.457 7.36521 48.252 7.47263 48.0469C7.58005 47.832 7.72654 47.4316 7.7949 47.1582C7.92185 46.6797 7.94138 46.6602 8.47849 46.4355C9.31834 46.1035 9.85544 45.6055 10.2265 44.8535C10.5 44.2871 10.5488 44.1016 10.539 43.457C10.539 42.5684 10.3242 42.0215 9.70896 41.3574L9.28904 40.8984L9.52341 40.7129C10.9394 39.6094 19.4258 34.375 19.8066 34.375C19.8457 34.375 19.875 34.4531 19.875 34.5605C19.875 34.9121 20.5879 36.1523 21.0761 36.6602C23.4199 39.0527 27.2187 38.6719 29.0449 35.8496C29.25 35.5273 29.4746 35.0684 29.5429 34.8242C29.6113 34.5801 29.6894 34.375 29.7187 34.375C29.7871 34.375 32.3652 35.8594 33.9375 36.8066C35.4121 37.6953 35.7343 37.7734 36.0761 37.3438C36.5547 36.7285 36.3691 36.5332 33.9082 35.0879C32.7168 34.3848 31.3203 33.5742 30.8125 33.2812L29.8847 32.7539L29.8554 32.2266L29.8359 31.6895L30.3437 31.3477C31.1152 30.8301 31.8281 30.1367 32.4629 29.2969C33 28.5742 33.7324 27.2656 33.8593 26.7871C33.9082 26.6211 34.0156 26.5625 34.4746 26.5137C35.705 26.3574 36.8574 25.498 37.414 24.3457C37.8828 23.3398 37.8144 21.8652 37.2578 20.9375C37.082 20.6641 37.082 20.5957 37.209 20.0586C37.414 19.1699 37.6484 17.4707 37.6484 16.8555C37.6484 16.1914 37.4336 15.918 36.9258 15.918C36.4668 15.918 36.1836 16.2793 36.1836 16.875C36.1836 17.3145 35.9101 19.3164 35.832 19.4434C35.8125 19.4824 35.5879 19.4336 35.334 19.3359C35.0703 19.2383 34.6113 19.1309 34.2988 19.0918C33.8496 19.043 33.5859 18.9258 33.0097 18.5449C31.4179 17.4805 30.041 15.7715 29.582 14.2871C29.4453 13.8477 29.3476 13.418 29.3672 13.3203C29.3867 13.1836 29.6211 13.0957 30.4218 12.9297C32.2773 12.5391 33.6738 11.9531 34.7968 11.1035C35.08 10.8887 35.3242 10.7324 35.3437 10.752C35.4316 10.8398 35.7832 12.1289 35.9297 12.8906C36.0175 13.3496 36.1152 13.8184 36.1445 13.9355C36.2031 14.2188 36.6914 14.4727 37.0136 14.3945C37.4336 14.2871 37.58 13.9551 37.5019 13.3008C37.414 12.5488 36.9355 10.7422 36.623 9.96094L36.3789 9.33594L36.584 8.74023C36.8769 7.91992 36.9453 6.5625 36.7207 5.80078C36.2715 4.22852 34.8554 3.02734 32.7754 2.45117C31.6133 2.12891 30.1289 2.01172 28.9961 2.14844C28.459 2.20703 27.8144 2.28516 27.541 2.31445L27.0527 2.36328L27.4922 1.91406C27.7265 1.66992 28.0097 1.43555 28.1074 1.40625C28.3808 1.31836 28.5664 0.810547 28.4492 0.46875C28.2441 -0.126953 27.7168 -0.146484 26.9746 0.400391ZM21.9258 2.20703C22.2187 2.29492 23.039 2.61719 23.7422 2.92969C25.8125 3.85742 26.5937 3.96484 28.6738 3.65234C30.334 3.39844 32.1113 3.63281 33.5078 4.28711C34.289 4.6582 34.8457 5.16602 35.1679 5.82031C35.4023 6.29883 35.4218 6.43555 35.3828 7.1582C35.2558 9.64844 33.1465 11.0742 28.5664 11.7871C26.9648 12.0312 22.5508 12.0312 20.9492 11.7871C17.3066 11.2207 15.1386 10.127 14.4062 8.4668C13.8496 7.19727 14.2109 5.68359 15.4023 4.3457C16.4668 3.1543 18.1367 2.27539 19.8261 2.02148C20.2754 1.95312 21.3301 2.04102 21.9258 2.20703ZM14.8359 11.1816C15.9883 12.002 17.5312 12.627 19.2695 12.9883L20.1191 13.1641L20.0996 13.5547C20.0605 14.4922 19.2695 15.9082 18.1269 17.1094C17.0332 18.252 15.9101 19.0137 15.1875 19.1016C14.8945 19.1406 14.4355 19.248 14.1719 19.3457C13.8984 19.4434 13.6738 19.5117 13.664 19.502C13.6152 19.4531 13.3418 17.3828 13.2832 16.6016C13.2148 15.6641 13.3515 13.8379 13.5761 12.7734C13.7617 11.9141 14.1035 10.7422 14.1719 10.7422C14.2011 10.7422 14.5039 10.9375 14.8359 11.1816ZM27.9316 13.8477C28.2343 15.8887 29.9531 18.252 32.209 19.7559L32.9707 20.2637L32.9316 22.6074C32.8925 25.2539 32.8047 25.7129 32.0918 27.1387C31.0664 29.1602 29.0547 30.8008 26.8574 31.4062C26.0078 31.6406 24.0058 31.6992 23.1367 31.5137C19.9824 30.8398 17.4824 28.4375 16.75 25.3613C16.584 24.6875 16.5547 24.209 16.5547 22.4121V20.2637L17.3554 19.7363C18.3808 19.0527 19.7187 17.7344 20.3437 16.7773C20.9199 15.8887 21.3789 14.834 21.5351 14.0137L21.6523 13.4277H24.7578H27.8633L27.9316 13.8477ZM5.19724 21.2598C5.9199 22.6562 6.14451 23.3496 6.00779 23.8184C5.83201 24.4531 5.70506 24.5117 4.54295 24.5117C3.64451 24.5117 3.47849 24.4824 3.33201 24.3262C3.02927 23.9941 2.96092 23.5352 3.1367 22.9492C3.29295 22.4121 4.42576 20.1172 4.54295 20.1172C4.57224 20.1172 4.87498 20.6348 5.19724 21.2598ZM15.0215 22.6367C15.0508 23.75 15.1094 24.7363 15.1386 24.834C15.2461 25.0977 14.8066 25.0391 14.289 24.7168C13.1074 23.9648 12.873 22.5 13.7715 21.3281C13.9668 21.0742 14.6992 20.6055 14.9043 20.6055C14.9336 20.6055 14.9922 21.5137 15.0215 22.6367ZM35.0312 20.8105C35.8125 21.2109 36.2715 21.9531 36.2812 22.8125C36.2812 23.7793 35.5097 24.7949 34.6308 24.9609C34.3183 25.0293 34.2988 25.0195 34.3574 24.7949C34.3965 24.668 34.4258 23.6719 34.4258 22.5781C34.4258 21.2793 34.4648 20.6055 34.5234 20.6055C34.582 20.6055 34.8066 20.6934 35.0312 20.8105ZM5.72459 27.002C5.92966 27.4805 6.10545 27.9102 6.10545 27.9492C6.10545 27.998 5.40232 28.0273 4.54295 28.0273C3.68357 28.0273 2.98045 28.0078 2.98045 27.9785C2.98045 27.9297 3.66404 26.2598 3.7324 26.1426C3.7617 26.1035 4.13279 26.084 4.57224 26.0938L5.36326 26.123L5.72459 27.002ZM22.8926 32.9492C24.4453 33.2422 26.4375 33.1152 27.8242 32.627L28.4004 32.4316L28.3515 33.2422C28.2832 34.248 27.9902 34.9414 27.3359 35.6445C25.6172 37.4902 22.5996 36.9824 21.5058 34.668C21.2715 34.1699 21.1933 33.877 21.164 33.2324L21.125 32.4316L21.6035 32.6172C21.8672 32.7148 22.4531 32.8711 22.8926 32.9492ZM5.3242 40.4102C6.22263 40.8887 6.64256 42.1777 6.63279 44.4336C6.62302 46.0059 6.45701 46.9336 6.05662 47.627C5.39256 48.7402 4.21092 48.8281 3.12693 47.832C2.26756 47.0508 1.80857 45.8398 1.80857 44.3848C1.80857 42.9297 2.26756 41.7188 3.11717 40.9375C3.87888 40.2441 4.65037 40.0586 5.3242 40.4102ZM8.54685 42.2656C9.02537 42.7441 9.20115 43.3203 9.03513 43.9062C8.92771 44.2969 8.43943 44.9219 8.24412 44.9219C8.19529 44.9219 8.15623 44.6875 8.15623 44.4043C8.15623 43.8379 7.99998 42.3633 7.91209 42.0801C7.80466 41.7676 8.14646 41.8652 8.54685 42.2656Z" fill="#1E2533"/>
<path d="M20.0116 19.1797C19.3964 19.4531 19.0253 20.2539 19.1327 21.123C19.2303 21.9824 19.7675 22.5586 20.4706 22.5586C20.8905 22.5586 21.4764 21.9727 21.6327 21.3867C21.7694 20.8887 21.6522 20.0684 21.3885 19.668C21.076 19.1895 20.4901 18.9844 20.0116 19.1797Z" fill="#FA7846"/>
<path d="M28.703 19.1797C27.3163 19.7754 27.6288 22.5586 29.0838 22.5586C29.8358 22.5586 30.3729 21.8262 30.3729 20.8008C30.3729 20.3418 30.3241 20.0781 30.1776 19.834C29.8163 19.2187 29.2303 18.9551 28.703 19.1797Z" fill="#FA7846"/>
<path d="M21.8575 25.3418C21.1642 25.8301 21.9161 27.0899 23.2833 27.7149C24.0255 28.0567 25.2755 28.125 26.1935 27.8809C27.2384 27.5977 28.3517 26.5918 28.3712 25.918C28.3712 25.5664 28.0099 25.1953 27.6583 25.1953C27.4142 25.1953 27.2481 25.3028 26.8087 25.7715C26.213 26.4063 25.8614 26.5625 24.963 26.5625C23.9962 26.5625 23.5665 26.3379 22.7853 25.4004C22.5802 25.1563 22.1603 25.1368 21.8575 25.3418Z" fill="#FA7846"/>
</svg>
