<svg width="50" height="50" viewBox="0 0 50 50" fill="none" xmlns="http://www.w3.org/2000/svg">
<path d="M2.4707 0.136269C1.65039 0.39994 0.947266 1.08353 0.615234 1.94291C0.449219 2.36283 0.439453 3.12455 0.439453 13.8179V25.2437L0.693359 25.7808C1.00586 26.4546 1.46484 26.9136 2.09961 27.2066L2.58789 27.441H14.5801H26.5723L26.8066 27.1968C27.1973 26.8062 27.0996 26.2593 26.5918 25.9956C26.4356 25.9078 24.5313 25.8785 19.4434 25.8785H12.5V20.1265C12.5 14.2085 12.4805 13.8667 12.1094 13.6714C11.7969 13.5054 11.377 13.564 11.1523 13.7984L10.9375 14.023V19.9507V25.8785H6.9336C2.5 25.8785 2.50977 25.8785 2.17773 25.2632C2.01172 24.9703 2.00195 24.4234 1.97266 17.8414L1.94336 10.7417H3.21289C4.58008 10.7417 4.89258 10.6636 5.06836 10.2828C5.22461 9.94096 5.20508 9.72611 4.99024 9.46244C4.81445 9.23783 4.72656 9.22807 3.39844 9.17924L2.00195 9.13041V5.79057C2.00195 2.56791 2.01172 2.44096 2.20703 2.17728C2.65625 1.56205 2.67578 1.56205 7.01172 1.56205H10.9375V2.6265C10.9375 3.51517 10.9668 3.72025 11.123 3.91557C11.3672 4.2183 11.9336 4.22807 12.2363 3.92533C12.4219 3.73002 12.4512 3.58353 12.4805 2.63627L12.5195 1.56205H26.5039C39.8535 1.56205 40.4981 1.57182 40.8106 1.73783C41.4844 2.09916 41.5039 2.19682 41.5039 5.87846V9.17924H30.1172H18.7305L18.4375 9.47221C18.1934 9.72611 18.1543 9.82377 18.2031 10.0874C18.2324 10.2632 18.3594 10.4781 18.4668 10.566C18.6621 10.732 19.3652 10.7417 30.0879 10.7417H41.5039V17.8121V24.8726L41.2793 25.2046C40.9766 25.6636 40.5078 25.8785 39.7949 25.8785C38.9063 25.8785 38.457 26.2984 38.6816 26.9331C38.8281 27.3726 39.1211 27.4703 40.0586 27.4214C41.3086 27.3531 42.2461 26.7769 42.793 25.7515C43.0176 25.3414 43.0176 25.2828 43.0664 20.6539L43.1152 15.9664L44.9121 18.6519C45.8984 20.1265 46.8066 21.5523 46.9336 21.8257C47.2363 22.48 47.2949 22.9488 47.666 27.3921L47.9883 31.2007L46.7383 36.7671C46.0547 39.8238 45.4688 42.4117 45.4492 42.4996C45.4004 42.6656 44.9902 42.6753 38.6231 42.6753H31.8457L31.5039 42.3824C30.957 41.8941 30.1074 40.7222 29.7559 39.941C29.1797 38.6812 29.0527 38.0367 29.0625 36.2789C29.0625 34.4917 29.2773 33.2417 29.9805 30.9664L30.3711 29.6773L30.5176 25.6539C30.7031 20.2437 30.7129 20.1167 30.9668 19.5406C31.377 18.5738 32.3438 17.9976 33.3789 18.0953C34.375 18.1831 35.0488 18.6617 35.4688 19.5796L35.6934 20.0679L35.6641 25.8199L35.6348 31.5718L35.8496 31.7964C36.1231 32.0894 36.6016 32.1089 36.9238 31.8453L37.1582 31.6597L37.2363 27.6656C37.2754 25.4781 37.2949 22.8023 37.2754 21.7281C37.2461 19.9898 37.2266 19.7164 37.0313 19.2281C36.5527 18.0269 35.7715 17.2164 34.6973 16.7867C34.2383 16.6011 33.9453 16.5621 33.1543 16.5523C32.2949 16.5523 32.1094 16.5816 31.6016 16.8257C30.459 17.3531 29.7559 18.1539 29.375 19.3648C29.209 19.8824 29.1602 20.4878 29.043 23.6812C28.8574 28.9937 28.7988 29.6089 28.3789 30.9371C26.8848 35.6441 27.207 39.4527 29.3164 42.2554L29.707 42.7632L29.3555 43.1148C29.1602 43.3003 28.9746 43.5835 28.9356 43.73C28.8867 43.8765 28.8574 45.0972 28.8574 46.4449C28.8574 48.8863 28.8574 48.896 29.1016 49.2476C29.2285 49.4429 29.502 49.6871 29.6973 49.8042C30.0586 49.9996 30.1172 49.9996 38.7012 49.98C47.3047 49.9507 47.3535 49.9507 47.627 49.7456C47.7734 49.6382 47.9981 49.3941 48.125 49.2183C48.3301 48.9058 48.3399 48.8277 48.3399 46.357C48.3399 43.9351 48.3301 43.8081 48.125 43.4468C47.9883 43.1929 47.7637 42.9878 47.4609 42.8414L47.0117 42.6167L48.2617 37.1089C48.9551 34.0718 49.5117 31.3667 49.5215 31.1031C49.5215 30.1753 48.8184 22.7046 48.6816 22.1285C48.5938 21.816 48.4473 21.3765 48.3496 21.1519C48.252 20.9273 47.0313 19.023 45.625 16.9234L43.0762 13.0953L43.0469 7.59721L43.0176 2.09916L42.7539 1.61088C42.4512 1.02494 42.002 0.595253 41.4063 0.282753L40.9668 0.048378L21.9238 0.0288467C6.38672 0.0190811 2.80273 0.0386124 2.4707 0.136269ZM46.7774 46.3374V48.4371H38.5742H30.3711V46.3374V44.2378H38.5742H46.7774V46.3374Z" fill="#1E2533"/>
<path d="M6.78707 4.27672C4.91207 5.17516 5.2441 7.95836 7.4316 9.61852C7.7734 9.87242 8.29097 10.1947 8.57418 10.3216L9.08199 10.5658L8.66207 11.0345C8.11519 11.64 7.60738 12.6166 7.27535 13.6908C7.04097 14.4427 7.03121 14.5599 7.1484 14.8138C7.34371 15.224 7.72457 15.3705 8.13472 15.1947C8.44722 15.0677 8.49605 14.9798 8.74019 14.2474C9.28707 12.558 9.9316 11.6791 11.0937 11.0638L11.6796 10.7513L12.2363 11.0638C13.4472 11.7377 14.0332 12.4701 14.4921 13.8763C14.8437 14.9701 14.9218 15.1068 15.2636 15.224C15.625 15.3607 15.996 15.1947 16.2011 14.8236C16.3378 14.5795 16.3281 14.5013 16.0742 13.7005C15.7226 12.597 15.2148 11.6302 14.6875 11.0443L14.2675 10.5755L14.7265 10.3607C16.6113 9.44274 17.7832 7.89 17.7929 6.28844C17.8027 4.02281 15.1757 3.34899 13.2128 5.11656C12.7343 5.54625 11.9336 6.64977 11.7773 7.07946C11.7187 7.23571 11.6503 7.16735 11.3671 6.65953C10.8496 5.74156 9.9609 4.84313 9.21871 4.4818C8.3984 4.07164 7.38277 3.99352 6.78707 4.27672ZM8.66207 5.95641C9.16988 6.24938 9.76558 6.92321 10.1074 7.6068C10.2832 7.9486 10.7421 9.24742 10.7421 9.38414C10.7421 9.50133 9.78511 9.18883 9.14058 8.86656C8.42769 8.50524 7.58785 7.73375 7.32418 7.18688C7.07027 6.65953 7.06051 5.90758 7.30465 5.77086C7.61715 5.58531 8.13472 5.65367 8.66207 5.95641ZM16.0351 5.78063C16.7089 6.3275 15.7617 8.03649 14.3652 8.77867C13.7402 9.1107 12.6953 9.50133 12.6171 9.43297C12.5586 9.37438 12.8711 8.45641 13.1836 7.76305C13.33 7.44078 13.623 6.9525 13.8476 6.67906C14.4726 5.88805 15.5957 5.42906 16.0351 5.78063Z" fill="#FA7846"/>
<path d="M6.83594 29.8531C6.44531 30.0581 6.2207 30.2632 6.00586 30.6148C5.74219 31.0445 5.71289 31.1617 5.71289 31.9234C5.71289 32.8218 5.89844 33.3785 6.41602 33.9937L6.66016 34.2769H4.81445C2.82227 34.2769 2.46094 34.355 1.98242 34.8726C1.61133 35.273 1.5625 35.5953 1.5625 37.4117C1.5625 39.4038 1.65039 39.7456 2.29492 40.1656L2.63672 40.3804V44.687C2.63672 48.9937 2.63672 48.9937 2.85156 49.316C2.97852 49.4917 3.23242 49.7163 3.41797 49.8238C3.74023 49.9898 4.11133 49.9995 11.7871 49.98C19.7754 49.9507 19.8145 49.9507 20.0879 49.7456C20.2344 49.6285 20.4492 49.3941 20.5566 49.2085C20.7422 48.896 20.752 48.6519 20.8008 44.6187L20.8496 40.3609L21.1816 40.0777C21.7188 39.6285 21.7773 39.3746 21.7773 37.3531C21.7773 35.4195 21.7383 35.2339 21.2695 34.7945C20.791 34.3453 20.4395 34.2769 18.5059 34.2769H16.6895L16.9922 33.9058C17.7148 32.9976 17.9004 31.6109 17.4023 30.7124C17.2559 30.439 16.9629 30.107 16.7188 29.9312C16.3184 29.6578 16.2402 29.6382 15.4004 29.6382C14.6191 29.6382 14.4336 29.6773 13.9551 29.9117C13.252 30.2535 12.5 30.9956 12.041 31.7867L11.6895 32.4117L11.3379 31.816C10.5273 30.4292 9.4043 29.6675 8.10547 29.6089C7.45117 29.5796 7.31445 29.5992 6.83594 29.8531ZM8.7793 31.3374C8.97461 31.4449 9.31641 31.7183 9.52148 31.9429C9.87305 32.3335 10.459 33.4566 10.5957 34.0132L10.6641 34.2769H10.0977C8.71094 34.2769 7.22656 33.066 7.22656 31.9429C7.22656 31.357 7.42188 31.1519 7.97852 31.1519C8.21289 31.1519 8.57422 31.2398 8.7793 31.3374ZM15.9375 31.3179C16.1719 31.5328 16.1719 32.2261 15.918 32.7046C15.498 33.5445 14.2578 34.2769 13.2812 34.2769H12.6953L12.7539 34.0035C12.8711 33.5152 13.457 32.3726 13.8184 31.9527C14.0234 31.7281 14.3359 31.4546 14.541 31.3472C14.9805 31.1128 15.6934 31.0933 15.9375 31.3179ZM8.39844 37.3531V38.8667H5.76172H3.125V37.3531V35.8394H5.76172H8.39844V37.3531ZM13.3789 37.3531V38.8667H11.6699H9.96094V37.3531V35.8394H11.6699H13.3789V37.3531ZM20.2148 37.3531V38.8667H17.5781H14.9414V37.3531V35.8394H17.5781H20.2148V37.3531ZM8.98438 44.482V48.437H6.5918H4.19922V44.482V40.5269H6.5918H8.98438V44.482ZM12.793 44.482V48.437H11.6699H10.5469V44.482V40.5269H11.6699H12.793V44.482ZM19.2383 44.482V48.437H16.7969H14.3555V44.482V40.5269H16.7969H19.2383V44.482Z" fill="#FA7846"/>
</svg>
