<svg width="175" height="68" viewBox="0 0 175 68" fill="none" xmlns="http://www.w3.org/2000/svg">
<g clip-path="url(#clip0_577_8199)">
<path d="M30.2264 7.22363H63.3284V60.0079H7.15869V8.09058V8.09191L14.4434 18.3891L30.2264 7.22363Z" fill="#D8D1C1"/>
<path d="M34.2677 10.2229C34.2677 15.6529 32.4979 20.6834 29.4855 24.8083C28.0702 26.7454 26.3815 28.4832 24.4723 29.9662C21.1134 32.579 17.0734 34.4098 12.6484 35.1719C12.2806 35.2356 11.9102 35.2914 11.5385 35.3392L8.03352 33.0994L7.86358 32.9919V10.3012L14.2761 19.3664L30.4441 7.92874H34.1614C34.2305 8.6855 34.2677 9.45022 34.2677 10.2229ZM6.45363 32.0904L3.03629 29.9065V35.1175C2.52515 35.0219 2.01799 34.9143 1.5188 34.7909V1.51758H1.65156L6.45496 8.30845C6.45363 8.30845 6.45363 32.0904 6.45363 32.0904ZM32.4408 6.52012L33.8202 5.54431C33.868 5.78726 33.9105 6.03155 33.9504 6.27716L33.9889 6.52012H32.4408Z" fill="#66C0FF"/>
<path d="M49.6577 14.0228C49.6577 17.4494 52.4351 20.2281 55.8631 20.2281C59.2897 20.2281 62.0685 17.4507 62.0685 14.0228C62.0685 10.5961 59.2911 7.81738 55.8631 7.81738C52.4351 7.81738 49.6577 10.5948 49.6577 14.0228Z" fill="#CB6362"/>
<path d="M35.509 2.62891L35.2209 2.22266H3.86743L14.6107 17.4122L30.8371 5.93473V5.93208L33.5441 4.0163L33.5455 4.01762L35.509 2.62891Z" fill="#F2EFEA"/>
<path d="M20.4788 41.0572C21.2382 37.5017 22.7066 34.2105 24.7339 31.3375C26.1638 29.3076 27.8738 27.486 29.8042 25.93C34.3606 22.2578 40.1544 20.0605 46.462 20.0605C47.24 20.0605 48.0087 20.0937 48.7682 20.1588C54.2725 20.6314 59.2977 22.7835 63.3284 26.1013C64.8538 27.3559 66.2372 28.7765 67.4507 30.3378V64.1952H45.8155L49.3616 59.6215L47.8388 58.5461L35.5303 50.6772L35.7812 50.6626L36.1197 50.6414L36.4596 50.6161L36.7995 50.5883L37.1394 50.5564L37.4792 50.5219L37.8191 50.4834L38.159 50.4422L38.4989 50.3958L38.8374 50.3466L39.1746 50.2935L39.5105 50.2364L39.8451 50.1754L39.9964 50.1462L40.1491 50.1143L40.3031 50.0798L40.4571 50.0426L40.6125 50.0041L40.7678 49.9629L40.9245 49.9191L41.0811 49.874L41.2378 49.8262L41.3958 49.7771L41.5538 49.7253L41.7118 49.6722L41.8711 49.6178L42.0304 49.5607L42.1897 49.5023L42.349 49.4425L42.5083 49.3814L42.6677 49.319L42.827 49.2553L42.9863 49.1889L43.1443 49.1226L43.3023 49.0535L43.4603 48.9845L43.6169 48.9141L43.7736 48.8424L43.9302 48.7694L44.0869 48.6951L44.2409 48.6207L44.3949 48.545L44.5489 48.468L44.7003 48.391L44.8516 48.3127L45.0016 48.2344L45.1503 48.1547L45.299 48.075L45.4451 47.9954L45.5911 47.9144L45.7345 47.8334L45.8766 47.7511L46.0173 47.6688L46.1567 47.5865L46.2948 47.5042L46.4315 47.4219L46.5669 47.3395L46.6997 47.2559L46.8311 47.1736L46.9599 47.0913L47.0874 47.009L47.2122 46.9266L47.3356 46.8443L47.4564 46.762L47.5746 46.681L47.6914 46.6L47.8056 46.5191L47.9171 46.4394L48.026 46.3597L48.1322 46.2814L48.2358 46.2031L48.3367 46.1261L48.4349 46.0491L48.5305 45.9734L48.6234 45.899L48.7137 45.8247L48.8 45.753C50.3879 44.4041 54.4066 39.4919 54.0973 39.3299L54.08 39.3206L54.0561 39.3073L54.0269 39.2914L53.9911 39.2715L53.9499 39.2489L53.9035 39.2237L53.8517 39.1958L53.7946 39.1653L53.7322 39.1321L53.6645 39.0962L53.5915 39.0577L53.5145 39.0166L53.4321 38.9741L53.3459 38.9289L53.2556 38.8812L53.16 38.832L53.0604 38.7803L52.9569 38.7271L52.8493 38.6727L52.7378 38.6156L52.6236 38.5572L52.5055 38.4975L52.3833 38.4364L52.2585 38.374L52.1297 38.3103L51.9983 38.2465L51.8642 38.1815L51.7275 38.1151L51.5881 38.0487L51.446 37.981L51.3013 37.9133L51.1539 37.8443L51.0052 37.7752L50.8579 37.7049L50.7052 37.6358L50.5498 37.5655L50.3932 37.4964L50.2352 37.4261L50.0759 37.357L49.9152 37.2867L49.7533 37.2176L49.59 37.1486L49.4253 37.0809L49.2607 37.0132L49.0948 36.9468L48.9275 36.8804L48.7602 36.8153L48.5929 36.7516L48.4256 36.6892L48.2583 36.6282L48.0911 36.5671L47.9238 36.5073L47.7565 36.4502L47.5892 36.3945L47.4233 36.3401L47.2586 36.2869L47.094 36.2365L46.9294 36.1874L46.7661 36.1409L46.6041 36.0958L46.4435 36.0533L46.2841 36.0135L46.1275 35.9763L45.9708 35.9404C45.8248 35.9086 45.6801 35.878 45.5354 35.8502C45.392 35.8223 45.2486 35.7944 45.1065 35.7692C44.9645 35.7439 44.8237 35.72 44.6843 35.6988C44.5436 35.6762 44.4055 35.6563 44.2661 35.6364C44.1281 35.6178 43.9913 35.6006 43.8546 35.5846C43.7178 35.5687 43.5824 35.5541 43.4483 35.5421C43.3142 35.5289 43.1801 35.5182 43.0474 35.509C42.9146 35.4997 42.7832 35.4917 42.6517 35.4837C42.5203 35.4771 42.3915 35.4718 42.2614 35.4678C42.1326 35.4638 42.0038 35.4612 41.8764 35.4612C41.7489 35.4598 41.6228 35.4598 41.4967 35.4625C41.3706 35.4638 41.2458 35.4678 41.1223 35.4718C40.9988 35.4758 40.8753 35.4824 40.7532 35.489C40.6311 35.497 40.5102 35.505 40.3894 35.5143C40.2686 35.5236 40.1491 35.5355 40.031 35.5475C39.9128 35.5594 39.7946 35.5727 39.6778 35.5886C39.561 35.6045 39.4455 35.6205 39.33 35.6377C39.2145 35.655 39.1003 35.6736 38.9874 35.6948C38.7604 35.7346 38.5374 35.7798 38.317 35.8289C38.2068 35.8528 38.0979 35.8794 37.9891 35.9059C37.8802 35.9325 37.7727 35.9603 37.6651 35.9896C37.5589 36.0188 37.4527 36.0493 37.3465 36.0798C37.2416 36.1104 37.1367 36.1436 37.0332 36.1768C36.9296 36.2099 36.826 36.2445 36.7251 36.2803C36.6229 36.3162 36.522 36.352 36.4211 36.3892C36.3202 36.4263 36.2206 36.4649 36.1224 36.5047C36.0228 36.5445 35.9259 36.5843 35.8277 36.6255C35.7307 36.6667 35.6338 36.7091 35.5369 36.7529C35.3444 36.8406 35.1572 36.9309 34.97 37.0238C34.8771 37.0703 34.7855 37.1194 34.6939 37.1672C34.6023 37.2163 34.512 37.2654 34.4217 37.3159C34.3314 37.3663 34.2425 37.4168 34.1548 37.4685C34.0672 37.5203 33.9796 37.5734 33.892 37.6265C33.8043 37.6796 33.7194 37.7341 33.6331 37.7885C33.5481 37.8429 33.4631 37.8987 33.3782 37.9558L33.1272 38.1271C33.0449 38.1855 32.9626 38.2439 32.8803 38.3023L32.6387 38.4815C32.559 38.5413 32.4794 38.6023 32.401 38.6647L32.1674 38.8519L31.9377 39.0431L31.712 39.237L31.4903 39.4334L31.2712 39.6339L31.0561 39.8371L30.845 40.0428L30.6286 40.2539L30.4255 40.465L30.225 40.6788L30.0285 40.8939L29.836 41.1116L29.6475 41.3306L29.4616 41.551L29.2798 41.7727L29.1005 41.9958L28.9253 42.2202L28.7527 42.4459L28.5841 42.6729L28.4181 42.8999L28.2561 43.1283L28.0968 43.3566L27.9402 43.585C27.5923 44.0988 27.2538 44.6431 26.9338 45.1888L20.9501 41.3638L20.4749 41.0598L20.4788 41.0572Z" fill="#EB8E51"/>
<path d="M49.3617 59.6228L45.8155 64.1965H3.03638V29.9062L8.03228 33.0992L13.53 36.6135L20.9542 41.3598L26.9378 45.1847C25.5186 47.601 24.4565 50.0372 24.4565 50.0372C24.4565 50.0372 29.7591 50.9918 35.5317 50.6785L47.8402 58.5474L49.3617 59.6228Z" fill="#D89795"/>
<path d="M48.8027 45.752C46.9944 47.2868 43.0713 49.5663 39.8491 50.1757C32.7236 51.5259 24.4578 50.0363 24.4578 50.0363C24.4578 50.0363 26.0523 46.3787 27.9455 43.5813C31.2473 38.7023 36.6216 33.8949 45.9655 35.9355C49.2819 36.6604 53.7919 39.163 54.1013 39.3263C54.408 39.4909 50.3905 44.4032 48.8027 45.752ZM32.1182 44.3142C31.396 40.5079 33.8774 36.8423 37.6598 36.1253C41.4422 35.4084 45.0946 37.9123 45.8168 41.7187C46.539 45.5237 44.0577 49.1906 40.2752 49.9075C36.4928 50.6245 32.8405 48.1205 32.1182 44.3142Z" fill="#FFEEC0"/>
<path d="M32.1182 44.3139C31.3959 40.5089 33.8773 36.842 37.6597 36.1264C41.4422 35.4095 45.0945 37.9134 45.8167 41.7197C46.539 45.5247 44.0576 49.1917 40.2752 49.9073C36.4927 50.6242 32.8404 48.1203 32.1182 44.3139Z" fill="#66C0FF"/>
<path d="M34.9712 10.2228C34.9712 12.9644 34.5317 15.609 33.7166 18.0944C32.8735 20.666 31.6269 23.0664 30.051 25.2238C29.3248 26.2169 28.5282 27.1608 27.6652 28.0477C26.7996 28.9372 25.8769 29.7643 24.9024 30.5224C23.1605 31.8779 21.2368 33.029 19.175 33.9371C17.1596 34.8239 15.0102 35.4785 12.7651 35.8661L12.4438 35.9206L10.5958 34.739C11.2503 34.6752 11.8955 34.5889 12.5288 34.4788C14.6583 34.1123 16.6963 33.4923 18.6081 32.6493C20.5623 31.789 22.3852 30.6976 24.0394 29.4098C24.9741 28.6836 25.849 27.9016 26.6589 27.0679C27.4727 26.2301 28.2281 25.3353 28.9185 24.3927C30.4081 22.3548 31.5844 20.0885 32.3797 17.6602C33.1484 15.3169 33.5626 12.817 33.5626 10.2228C33.5626 9.5696 33.5373 8.92703 33.4856 8.2964C33.4325 7.63922 33.3555 7.00328 33.2572 6.38725C33.2081 6.0819 33.1537 5.78716 33.0966 5.50172L33.0408 5.23486L33.9489 4.59229L34.2822 4.35729C34.3499 4.64539 34.4149 4.93614 34.4733 5.2269C34.5371 5.54686 34.5955 5.86151 34.6446 6.16819C34.7535 6.84662 34.8371 7.51973 34.8902 8.18753C34.9433 8.8633 34.9712 9.54172 34.9712 10.2228ZM3.03619 35.8303C2.46796 35.7281 1.90769 35.6086 1.35274 35.4732L0.813721 35.3404V0.8125H33.163L33.3355 1.27054L33.4285 1.5188H2.51044L3.00831 2.22378H2.22367V34.2345C2.49318 34.2942 2.76402 34.35 3.03752 34.4018L3.03619 35.8303Z" fill="black"/>
<path d="M50.3613 14.0227C50.3613 15.5415 50.9773 16.9169 51.973 17.9126C52.9674 18.9084 54.3428 19.5244 55.863 19.5244C57.3818 19.5244 58.7572 18.9084 59.7516 17.9126C60.7474 16.9182 61.3634 15.5428 61.3634 14.0227C61.3634 12.5038 60.7474 11.1284 59.7516 10.1327C58.7572 9.13828 57.3818 8.52226 55.863 8.52226C54.3442 8.52226 52.9687 9.13828 51.973 10.1327C50.9773 11.1284 50.3613 12.5038 50.3613 14.0227ZM50.976 18.9084C49.7253 17.6577 48.9526 15.9305 48.9526 14.0213C48.9526 12.1135 49.7266 10.3863 50.976 9.13563C52.2266 7.88499 53.9538 7.1123 55.863 7.1123C57.7708 7.1123 59.4981 7.88632 60.7487 9.13563C61.9993 10.3863 62.772 12.1135 62.772 14.0213C62.772 15.9292 61.998 17.6577 60.7487 18.9084C59.4981 20.159 57.7708 20.9317 55.863 20.9317C53.9552 20.9317 52.2266 20.159 50.976 18.9084Z" fill="black"/>
<path d="M69.6732 32.5071V60.7526L69.6705 60.7911C69.6546 61.0606 69.6466 61.2212 69.6373 61.3765C69.3997 65.7126 69.3612 66.4202 64.9428 66.4202H27.6972L27.4888 66.2198C26.8289 65.5798 26.1983 64.9054 25.6022 64.1978H27.4768C27.7331 64.4739 27.9959 64.7448 28.2641 65.0116H64.9415C68.0295 65.0116 68.0574 64.4925 68.2327 61.3075L68.2632 60.7552H68.2619V32.7075C67.5516 31.5963 66.7524 30.5382 65.8774 29.5438C64.9521 28.4936 63.9497 27.5231 62.881 26.6442C60.8935 25.0086 58.6524 23.6623 56.2268 22.6719C53.8743 21.712 51.3478 21.088 48.7084 20.861C48.3101 20.8265 47.9371 20.8026 47.5892 20.7867C47.248 20.7721 46.871 20.7641 46.4594 20.7641C43.4417 20.7641 40.5488 21.2792 37.8616 22.2258C35.0709 23.2083 32.4993 24.6567 30.2423 26.4769C29.3023 27.235 28.4155 28.0568 27.5884 28.9384C26.7665 29.8159 26.0032 30.7519 25.3061 31.7397C24.2507 33.2359 23.3532 34.8437 22.6336 36.5391C21.9698 38.1044 21.456 39.7507 21.1095 41.4593L20.9515 41.3584L19.8442 40.6508C20.204 39.0417 20.7072 37.4857 21.3392 35.9948C22.1012 34.1958 23.0478 32.5004 24.1551 30.9311C24.8879 29.8916 25.6938 28.9038 26.5634 27.9758C27.433 27.0478 28.3677 26.1809 29.3607 25.3816C31.7425 23.4632 34.4522 21.9351 37.393 20.8995C40.2315 19.8998 43.2837 19.3555 46.4581 19.3555C46.8245 19.3555 47.2215 19.3648 47.6476 19.3833C48.0685 19.4019 48.4602 19.4258 48.8226 19.4577C51.6067 19.6967 54.2726 20.3552 56.7539 21.3682C59.307 22.4104 61.6702 23.8309 63.7718 25.5609C64.9109 26.4982 65.9691 27.5191 66.9329 28.6144C67.8955 29.7084 68.7757 30.8847 69.5603 32.134L69.6705 32.3092L69.6732 32.5071Z" fill="black"/>
<path d="M68.9682 67.2329H0V0H70.4856V67.2329H68.9682ZM3.03631 64.1966H67.4493V3.03631H3.03631V64.1966Z" fill="black"/>
<path d="M32.3811 8.13739C32.3227 7.36471 32.2603 6.59202 32.2125 5.81934L31.2407 6.50573L29.6448 7.63555C29.6077 8.03251 29.5851 8.42549 29.5599 8.80519C29.4337 10.7024 29.2067 12.5903 29.1018 14.4901C28.9837 16.6011 28.9239 18.7147 28.8429 20.827C28.8137 21.5837 28.7739 22.3391 28.7288 23.0959C28.6464 21.6235 28.5562 20.1525 28.4473 18.6815C28.2946 16.613 28.1141 14.5472 27.9069 12.4841C27.8074 11.4884 27.6905 10.4953 27.5883 9.49955C27.575 9.3721 27.5644 9.24332 27.5551 9.11453L24.9782 10.9374C24.3701 13.7971 24.4498 16.8109 24.2958 19.7104C24.2002 21.5001 24.1179 23.2911 24.0395 25.082C23.9068 23.696 23.782 22.3099 23.6705 20.9225C23.5271 19.1302 23.3359 17.318 23.3279 15.5204C23.3226 14.364 23.4302 13.197 23.4209 12.038L21.2396 13.5807C21.2249 13.6909 21.2117 13.8011 21.1957 13.9113C21.047 14.9747 20.8891 16.0355 20.7497 17.1003C20.4748 19.194 20.2332 21.293 20.0048 23.392C19.7141 26.0658 19.4486 28.7423 19.1884 31.4202C19.203 30.917 19.2149 30.4125 19.2242 29.9107C19.2654 27.7612 19.276 25.6144 19.3809 23.465C19.4857 21.3328 19.6291 19.2046 19.742 17.0737C19.7858 16.236 19.8256 15.3982 19.8548 14.5605L16.8822 16.6635C16.2357 19.8578 15.8268 23.1052 15.309 26.3234C15.3249 26.1442 15.3409 25.9662 15.3608 25.787C15.5798 23.6933 15.9091 21.6143 16.1746 19.5272C16.2822 18.6762 16.3777 17.8225 16.4521 16.9675L14.442 18.3894L13.8579 17.5636C13.6959 18.4346 13.5552 19.3095 13.368 20.1605C12.7334 23.0401 12.1147 25.9224 11.508 28.8087C11.1057 30.7179 10.6848 32.627 10.2865 34.5415L11.4018 35.2544C12.3723 30.2439 13.4782 25.2546 14.5682 20.2707C14.6784 19.7688 14.7832 19.267 14.8868 18.7651C14.6465 21.2956 14.223 23.8141 13.9269 26.3367C13.5884 29.2176 13.5472 32.1052 13.5764 34.9955C14.0929 34.888 14.604 34.7658 15.1085 34.6291C15.1085 34.6052 15.1072 34.5813 15.1072 34.5574C15.4829 32.1902 15.9582 29.839 16.4003 27.4837C16.9287 24.6612 17.2978 21.8134 17.7518 18.9789C17.9297 17.8677 18.1209 16.7577 18.3387 15.6518C18.2444 18.4292 18.0479 21.2053 17.9005 23.9814C17.7253 27.2527 17.6549 30.5386 17.6098 33.8179C18.5936 33.4448 19.5481 33.016 20.4695 32.5354C20.9076 27.9896 21.3444 23.4424 21.8821 18.9072C21.9392 19.7861 22.0189 20.665 22.0866 21.5386C22.3309 24.7236 22.6668 27.8993 22.9243 31.083C23.4541 30.7298 23.9705 30.3568 24.4697 29.9678C24.7551 29.746 25.0339 29.519 25.3088 29.2867C25.3552 28.2086 25.4216 27.1293 25.4654 26.0565C25.634 21.9276 25.7894 17.792 26.0244 13.667C26.0602 13.0497 26.1027 12.427 26.1651 11.8043C26.2554 12.6288 26.3417 13.4533 26.4227 14.2777C26.6258 16.3409 26.8024 18.408 26.951 20.4765C27.0997 22.5463 27.2126 24.6174 27.3201 26.6898C27.3321 26.9115 27.344 27.1332 27.356 27.355C28.1194 26.5517 28.8297 25.702 29.4829 24.8099C29.7046 24.5058 29.9197 24.1952 30.1281 23.8819C30.1892 22.9724 30.2529 22.063 30.2954 21.1509C30.4719 17.3565 30.5104 13.5502 30.8729 9.7664C30.8742 9.78632 30.8755 9.80491 30.8769 9.82349C31.0043 11.4857 31.1557 13.1452 31.392 14.7955C31.6443 16.5626 31.9682 18.323 32.1979 20.0914C32.6878 18.9762 33.0967 17.8212 33.418 16.6303C33.2387 15.4952 33.0476 14.3614 32.8896 13.2236C32.6546 11.5361 32.5085 9.8381 32.3811 8.13739ZM10.1963 34.483C10.4897 28.8193 10.9676 23.157 11.3964 17.5052C11.4734 16.4975 11.5743 15.5151 11.7111 14.5273L10.025 12.1429C8.8102 15.3093 8.38005 18.7439 7.93396 22.0856C7.48522 25.4525 6.99001 28.8101 6.5957 32.1823L7.76004 32.9271C7.92998 31.3591 8.12116 29.7938 8.32694 28.2312C8.61239 26.0672 8.94297 23.9111 9.24434 21.7497C9.5112 19.8339 9.75548 17.9128 10.11 16.0116C10.2056 15.5045 10.3078 14.9986 10.4206 14.4955C10.2361 15.5947 10.0502 16.6741 9.96392 17.7907C9.71034 21.0739 9.47535 24.3585 9.24301 27.6444C9.10361 29.6332 8.9589 31.6233 8.83145 33.6134L10.1963 34.483Z" fill="black"/>
<path d="M49.9178 60.0535L45.6813 65.5181H1.8042V28.2871C8.31228 32.4479 14.8217 36.6087 21.3298 40.7696L27.2975 44.5852C27.0506 44.9861 26.8129 45.3937 26.5859 45.796L20.5757 41.9538C14.7885 38.2537 9.00133 34.5536 3.21282 30.8548V64.1094H44.9949L48.3552 59.776L47.4338 59.1255L47.4351 59.1242L34.3035 50.7295C35.0934 50.7096 35.898 50.6684 36.7065 50.5994L48.2171 57.9572L48.245 57.9744L50.3679 59.4747L49.9178 60.0535Z" fill="black"/>
<path d="M7.15859 6.52051H64.032V60.7134H6.45361V6.52051H7.15859ZM62.622 7.93046H7.86356V59.3048H62.6233C62.622 59.3048 62.622 7.93046 62.622 7.93046Z" fill="black"/>
<path d="M69.6732 1.51748V50.9255L48.1947 20.5651H48.192L38.5348 6.91167L38.5361 6.91034L36.3176 3.77446L34.354 5.1645V5.16715L31.647 7.08161L31.6456 7.08028L14.2762 19.3676L1.15112 0.8125H34.2226H40.5076H69.6719C69.6732 0.8125 69.6732 1.51748 69.6732 1.51748ZM35.5091 2.62871L35.221 2.22245H3.86747L14.6107 17.4106L30.8371 5.9332V5.93055L33.5442 4.01476L33.5455 4.01609L35.5091 2.62871ZM38.5148 2.22245L37.4647 2.9646L39.6832 6.10048H39.6858L49.3431 19.7539L49.3417 19.7552L68.2632 46.5032V2.22245H38.5148Z" fill="black"/>
<path d="M36.1436 43.5454L36.145 43.544C36.0042 42.7952 36.1782 42.0597 36.5725 41.4769C36.9694 40.8901 37.5894 40.4573 38.3409 40.3139L38.3462 40.3112V40.3126C39.0923 40.1718 39.8265 40.3484 40.408 40.748C40.9922 41.1476 41.4236 41.7716 41.567 42.5244L41.5697 42.535C41.7078 43.2825 41.5352 44.0153 41.1409 44.5969C40.7439 45.1837 40.1226 45.6178 39.3724 45.7599L39.3618 45.7625V45.7638C38.617 45.9019 37.8855 45.7253 37.304 45.3271C36.7212 44.9261 36.2883 44.3021 36.145 43.5507L36.1436 43.5454ZM49.2567 46.2896C48.2251 47.1658 46.5324 48.2731 44.6711 49.1931C43.1456 49.9472 41.494 50.5805 39.9765 50.8673C32.7223 52.2414 24.3582 50.7345 24.3343 50.7305L23.4527 50.5739L23.8112 49.7561C23.8125 49.7521 23.9559 49.4255 24.2068 48.8904L22.1224 47.9146C22.0348 47.8735 21.9923 47.8549 21.9193 47.8018C21.8051 47.7181 21.7162 47.5933 21.6764 47.4433C21.5861 47.1034 21.7719 46.7582 22.0932 46.6719C22.2592 46.6281 22.4278 46.6613 22.5645 46.7503L24.7459 47.7712C25.107 47.045 25.5544 46.1834 26.0536 45.3032L23.2297 43.5772C23.1646 43.5374 23.1314 43.5148 23.0757 43.4604C22.9788 43.3648 22.9097 43.2374 22.8872 43.09C22.8341 42.7421 23.0571 42.4209 23.3864 42.3704C23.555 42.3452 23.7196 42.3956 23.8457 42.5005L26.6855 44.2371C26.9046 43.8799 27.1303 43.5281 27.36 43.1882C27.6467 42.7647 27.9481 42.3412 28.2668 41.923L25.9832 39.7311C25.9341 39.6846 25.9075 39.6514 25.869 39.593C25.7947 39.4801 25.7549 39.3407 25.7655 39.192C25.7881 38.8415 26.0748 38.576 26.4067 38.5973C26.578 38.6092 26.7267 38.6955 26.8276 38.823L29.0434 40.9512C29.8626 39.9793 30.7813 39.0526 31.8169 38.2229L29.99 35.5994C29.9383 35.5238 29.913 35.4893 29.8785 35.4069C29.8254 35.2795 29.8135 35.1321 29.852 34.9874C29.9436 34.6475 30.2768 34.4444 30.5968 34.532C30.7614 34.5772 30.8915 34.6913 30.9658 34.8374L32.8086 37.486C33.2998 37.1475 33.815 36.8328 34.3553 36.5447C34.9262 36.2407 35.525 35.9672 36.1529 35.7322L35.2488 33.0769C35.209 32.9601 35.1771 32.8844 35.1665 32.7663C35.1545 32.6335 35.1837 32.4941 35.2594 32.3693C35.44 32.0693 35.817 31.967 36.1011 32.1409C36.2472 32.2312 36.3401 32.3759 36.3707 32.5366L37.3279 35.3459C38.3767 35.0471 39.5012 34.8507 40.7054 34.7803L40.5952 31.963C40.5912 31.8688 40.5925 31.8104 40.6164 31.7148C40.647 31.5953 40.7107 31.4824 40.8103 31.3922C41.0692 31.1572 41.4595 31.1678 41.6825 31.4161C41.7967 31.5435 41.8432 31.7081 41.8286 31.8701L41.9414 34.7524C42.985 34.7644 44.0869 34.8692 45.2472 35.0764L45.8898 32.2326C45.9097 32.1476 45.923 32.0971 45.9655 32.0175C46.0252 31.906 46.1195 31.809 46.243 31.7453C46.5536 31.586 46.9294 31.6988 47.0807 31.9962C47.159 32.1502 47.1617 32.3228 47.1046 32.4755L46.4594 35.3299C47.321 35.5437 48.2424 35.857 49.1425 36.2102L50.194 33.458C50.2232 33.3823 50.2352 33.3518 50.2737 33.288C50.3494 33.1619 50.4689 33.0597 50.6215 33.0066C50.9521 32.8937 51.3079 33.0583 51.4141 33.3757C51.4699 33.539 51.4486 33.7102 51.3703 33.8523L50.2896 36.6828C51.1712 37.0638 51.9943 37.4555 52.6714 37.7927L53.8862 35.6008C53.9619 35.4627 54.0097 35.3525 54.1265 35.2476C54.2115 35.1719 54.3177 35.1162 54.4398 35.0936C54.7823 35.0286 55.1116 35.2423 55.174 35.5702C55.2059 35.7388 55.1607 35.9061 55.0638 36.0362L53.7773 38.3583C54.0336 38.4937 54.2261 38.5973 54.3389 38.6583L54.4279 38.7061C54.4876 38.7367 54.542 38.7778 54.5912 38.823C54.9284 39.1429 54.8474 39.6394 54.4571 40.2409C54.2553 40.5515 53.9566 40.9631 53.5981 41.4264C52.3368 43.0581 50.3002 45.4041 49.2567 46.2896ZM45.4291 47.1977C46.6174 46.5193 47.6489 45.809 48.3486 45.2155C49.3244 44.3871 51.2694 42.1407 52.4842 40.5675C52.7617 40.2077 52.9993 39.8864 53.1746 39.6302C51.8098 38.9092 48.415 37.1926 45.8155 36.6244C44.6485 36.3695 43.5465 36.2261 42.507 36.177C42.7752 36.3177 43.0341 36.473 43.2823 36.6443C44.9074 37.7582 46.1102 39.4947 46.5072 41.5884V41.5911C46.8909 43.6117 46.4527 45.5966 45.4291 47.1977ZM31.8885 40.0152C30.5702 41.218 29.4643 42.5934 28.5283 43.9768C27.2179 45.9139 26.0562 48.2625 25.4814 49.4865C27.2378 49.7401 31.3283 50.2234 35.6537 49.9698C35.3059 49.8012 34.9713 49.6074 34.6527 49.3883C33.0277 48.2744 31.8248 46.5379 31.4265 44.4442V44.4428C31.1331 42.8935 31.323 41.3654 31.8885 40.0152ZM32.8086 44.1826V44.1853C33.1339 45.8966 34.1177 47.3159 35.4453 48.2266C36.7729 49.136 38.4431 49.5383 40.1425 49.2184V49.217L40.1478 49.2157C41.8445 48.8944 43.2505 47.9093 44.1519 46.5777C45.0547 45.2434 45.4504 43.5626 45.1264 41.85V41.8473C44.8012 40.136 43.8174 38.7167 42.4897 37.806C41.1621 36.8965 39.4919 36.4943 37.7926 36.8156H37.7872C36.0905 37.1382 34.6846 38.122 33.7831 39.4536C32.8816 40.7892 32.4847 42.4713 32.8086 44.1826Z" fill="black"/>
<path d="M94.7886 30.8082L79.3967 33.252L81.8405 48.6438L97.2324 46.2001L94.7886 30.8082Z" fill="#EDE4E6"/>
<path d="M88.3303 34.7169C88.5839 33.919 88.9636 33.3428 89.7429 33.3428C90.4864 33.3428 90.9019 33.9376 91.1555 34.7169L94.9247 46.4904H93.8732L92.6597 42.7026H86.8248L85.6113 46.4904H84.5598L88.3303 34.7169ZM87.0983 41.8104H92.3876L90.2687 35.0143C90.1598 34.6439 90.0151 34.2721 89.7429 34.2721C89.4721 34.2721 89.326 34.6439 89.2172 35.0143L87.0983 41.8104Z" fill="#363634" stroke="#363634" stroke-width="1.1999" stroke-miterlimit="10"/>
<path d="M99.8196 35.1246C99.8196 33.9363 100.363 33.4902 101.523 33.4902H104.894C107.213 33.4902 107.865 35.0688 107.865 37.2979C107.865 39.6014 107.303 41.1972 105.04 41.1972H104.259V41.2901L107.955 46.4905H106.741L103.317 41.6247C103.172 41.4202 102.971 41.2343 102.971 40.9555V40.7325C102.971 40.4537 103.135 40.305 103.407 40.305H104.983C106.722 40.305 106.814 38.9495 106.814 37.2966C106.814 35.5507 106.596 34.3811 104.712 34.3811H101.523C100.98 34.3811 100.798 34.5669 100.798 35.1232V46.4878H99.8196V35.1246Z" fill="#363634" stroke="#363634" stroke-width="1.1999" stroke-miterlimit="10"/>
<path d="M116.164 46.4905V34.3824H111.942V33.4902H121.363V34.3824H117.141V46.4905H116.164Z" fill="#363634" stroke="#363634" stroke-width="1.1999" stroke-miterlimit="10"/>
<path d="M90.3046 66.2704C86.1916 66.2704 85.468 63.2991 85.468 59.7716C85.468 56.2427 86.1371 53.2715 90.4865 53.2715H93.402V54.1637H90.4865C87.2245 54.1637 86.5182 56.2427 86.5182 59.7716C86.5182 63.2991 87.1528 65.3795 90.3232 65.3795H93.6025V66.2717H90.3046V66.2704Z" fill="#363634" stroke="#363634" stroke-width="1.1999" stroke-miterlimit="10"/>
<path d="M101.723 54.4972C101.977 53.6992 102.357 53.123 103.136 53.123C103.879 53.123 104.295 53.7178 104.549 54.4972L108.318 66.2706H107.266L106.053 62.4829H100.218L99.0044 66.2706H97.9529L101.723 54.4972ZM100.491 61.592H105.781L103.662 54.7959C103.553 54.4255 103.408 54.0537 103.136 54.0537C102.865 54.0537 102.719 54.4255 102.61 54.7959L100.491 61.592Z" fill="#363634" stroke="#363634" stroke-width="1.1999" stroke-miterlimit="10"/>
<path d="M121.763 64.9709C121.763 65.8445 121.382 66.4193 120.604 66.4193C120.025 66.4193 119.644 66.2149 119.336 65.4727L114.879 54.4972C114.825 54.3485 114.699 54.1812 114.498 54.1812C114.371 54.1812 114.19 54.2369 114.19 54.5529V66.2707H113.212V54.4414C113.212 53.1602 114.19 53.123 114.408 53.123C115.114 53.123 115.458 53.4935 115.657 53.9953L120.15 65.0267C120.223 65.2125 120.349 65.3612 120.548 65.3612C120.783 65.3612 120.783 65.1568 120.783 65.0267V53.2717H121.762V64.9709H121.763Z" fill="#363634" stroke="#363634" stroke-width="1.1999" stroke-miterlimit="10"/>
<path d="M131.133 65.0636C131.206 65.3238 131.314 65.4167 131.441 65.4167C131.569 65.4167 131.676 65.3238 131.749 65.0636L135.191 53.2715H136.223L132.545 65.5654C132.436 65.9372 132.164 66.4191 131.44 66.4191C130.715 66.4191 130.443 65.9358 130.335 65.5654L126.656 53.2715H127.689L131.133 65.0636Z" fill="#363634" stroke="#363634" stroke-width="1.1999" stroke-miterlimit="10"/>
<path d="M143.076 54.4972C143.329 53.6992 143.709 53.123 144.488 53.123C145.232 53.123 145.647 53.7178 145.901 54.4972L149.67 66.2706H148.619L147.405 62.4829H141.57L140.357 66.2706H139.305L143.076 54.4972ZM141.844 61.592H147.133L145.014 54.7959C144.905 54.4255 144.76 54.0537 144.488 54.0537C144.217 54.0537 144.071 54.4255 143.963 54.7959L141.844 61.592Z" fill="#363634" stroke="#363634" stroke-width="1.1999" stroke-miterlimit="10"/>
<path d="M154.22 65.3795H159.201C159.962 65.3795 160.688 64.9706 160.688 63.1518C160.688 62.2981 160.361 61.852 159.058 61.0528L156.177 59.2698C154.927 58.5077 154.021 57.8399 154.021 56.2056C154.021 54.3482 154.891 53.2715 156.883 53.2715H161.141V54.1637H156.883C155.561 54.1637 155.072 54.7199 155.072 56.2069C155.072 57.042 155.29 57.5067 156.394 58.2302L159.149 60.0132C160.507 60.8855 161.739 61.4431 161.739 63.1518C161.739 64.7489 161.161 66.2717 159.202 66.2717H154.221V65.3795H154.22Z" fill="#363634" stroke="#363634" stroke-width="1.1999" stroke-miterlimit="10"/>
<path d="M92.4288 18.5552C92.5363 19.069 92.7872 19.1062 92.8948 19.1062C93.0023 19.1062 93.2532 19.069 93.3608 18.5552L96.7316 1.10742H105.049L99.205 22.9643C98.4881 25.6833 96.8378 27.1159 92.8948 27.1159C88.9504 27.1159 87.3014 25.6462 86.5845 22.9643L80.7402 1.10742H89.0592L92.4288 18.5552Z" fill="#EB8E51"/>
<path d="M109.927 26.8211V1.10742H118.031V26.8211H109.927Z" fill="#EB8E51"/>
<path d="M130.041 3.93511C130.937 1.10724 132.91 0.8125 135.778 0.8125C138.647 0.8125 140.618 1.10724 141.514 3.93511L148.649 26.8209H140.115L138.86 21.5316H132.693L131.439 26.8209H122.905L130.041 3.93511ZM133.698 15.8732H137.858L136.102 9.15007C136.066 8.92968 135.958 8.5991 135.779 8.5991C135.6 8.5991 135.492 8.92968 135.456 9.15007L133.698 15.8732Z" fill="#EB8E51"/>
<path d="M152.447 5.14743C152.447 2.57579 153.881 1.10742 156.392 1.10742H168.044C173.781 1.10742 174.498 4.34022 174.498 9.84992C174.498 13.8913 173.996 18.9973 169.693 18.9973H169.478V19.1447L175 26.8224H166.324L162.845 20.872C162.057 19.5496 161.553 18.4849 161.553 17.0152V16.0978C161.553 13.8939 161.948 13.1956 164.098 13.1956H164.242C166.393 13.1956 166.751 12.4972 166.751 10.2934C166.751 8.08947 166.393 7.50133 164.242 7.50133H161.768C160.692 7.50133 160.19 8.01512 160.19 9.11706V26.8224H152.446V5.14743H152.447Z" fill="#EB8E51"/>
</g>
<defs>
<clipPath id="clip0_577_8199">
<rect width="175" height="67.2329" fill="white"/>
</clipPath>
</defs>
</svg>
