<svg width="42" height="50" viewBox="0 0 42 50" fill="none" xmlns="http://www.w3.org/2000/svg">
<path d="M26.2931 0.166012C25.8829 0.361324 25.7462 0.566402 25.4532 1.42578C25.3263 1.79687 24.8087 2.91992 24.3009 3.91601C23.2169 6.01562 23.0411 6.65039 23.2462 7.7832C23.3048 8.14453 23.4122 8.57421 23.4806 8.74023L23.6173 9.05273L21.7911 9.11132C19.1446 9.19921 17.0938 9.56054 14.7501 10.3711C10.9122 11.709 7.25986 14.2187 4.85752 17.1875C-0.699122 24.0527 -0.943262 33.4082 4.24228 40.4102C5.14072 41.6211 6.74228 43.3008 7.86533 44.209C11.2931 46.9824 15.7364 48.7891 20.1895 49.2383L21.3907 49.3555L21.6349 49.1211C22.1329 48.6523 21.8009 47.8516 21.088 47.8516C20.9415 47.8516 20.297 47.7832 19.6622 47.7051C11.0685 46.5918 4.03721 40.5273 2.35752 32.793C0.912206 26.0937 3.65635 19.1504 9.45713 14.8242C13.3536 11.9141 17.9923 10.459 23.002 10.5664L24.5645 10.5957L25.1017 11.0352C25.4044 11.2793 25.8536 11.582 26.1075 11.7187C26.5274 11.9434 26.5665 11.9922 26.5665 12.3242C26.5665 12.5195 26.8985 13.8965 27.2989 15.3711C28.0216 18.0371 28.0313 18.0762 27.8653 18.3887C27.6407 18.8281 27.67 19.4434 27.963 20.4102C28.3048 21.5039 28.7833 21.9727 29.5841 21.9727C29.8477 21.9727 29.8575 21.9824 30.17 23.3594C30.336 24.1309 30.4727 24.8047 30.4727 24.8535C30.4727 24.9121 30.2188 25.0781 29.9161 25.2344C28.6759 25.8398 27.4845 26.8945 27.0645 27.7637C26.0587 29.834 27.2208 31.8457 30.297 33.3691C31.3614 33.8965 32.1524 34.4141 32.5919 34.873C32.8653 35.1758 32.9435 35.4004 33.3536 37.1582C33.5978 38.2324 33.9395 39.5703 34.1056 40.1367C34.506 41.4941 34.5255 41.7383 34.2813 42.4316C33.8224 43.7598 32.8165 45.0391 31.5958 45.8496C30.4727 46.5918 28.129 47.3145 25.6876 47.666C24.8478 47.793 24.2032 47.9297 24.1056 48.0176C23.7149 48.3691 23.8517 49.0234 24.3692 49.2187C24.8966 49.4141 28.8224 48.6426 30.5216 47.998C32.504 47.2559 34.086 45.9473 35.0333 44.2578L35.3263 43.75L35.8341 44.8926C36.4395 46.2793 37.9142 48.9648 38.2755 49.3555C38.5977 49.707 39.213 50 39.6524 50C40.4337 50 41.2052 49.3848 41.42 48.6035C41.5567 48.0957 41.4688 45.1465 41.254 43.2617C41.0001 41.0352 40.1505 37.168 39.7403 36.3574C39.5548 36.0156 39.1446 35.8887 38.7833 36.0742C38.3341 36.3086 38.3243 36.5723 38.7149 37.959C39.4474 40.5762 39.7696 42.5195 39.9454 45.3613C40.0821 47.5684 40.0528 48.3301 39.8282 48.4766C39.545 48.6523 39.3692 48.457 38.6954 47.2559C37.211 44.6289 36.3419 42.5781 35.5899 39.9414C35.1505 38.418 31.2442 21.6602 31.3028 21.5918C31.4005 21.4941 33.3536 21.0059 33.4122 21.0742C33.461 21.1328 36.752 31.5527 37.2794 33.3203C37.4356 33.8672 37.7286 34.1797 38.0899 34.1797C38.422 34.1797 38.7735 33.8086 38.7735 33.457C38.7735 33.3008 38.1974 31.3477 37.504 29.1113C36.8009 26.875 36.2052 24.9707 36.1759 24.8828C36.1368 24.7656 36.2833 24.6387 36.7423 24.4043C37.5333 23.9844 38.7149 22.8027 39.1446 22.002C39.5743 21.1914 39.8477 20.0684 39.8477 19.1309C39.8477 17.2266 39.1349 15.7715 37.5235 14.3945C36.6446 13.6426 34.8087 12.3926 33.8126 11.8652C33.2169 11.5625 33.0997 11.4551 33.002 11.1426C32.9435 10.9473 32.836 10.6934 32.7579 10.5859C32.6505 10.4004 32.6798 10.293 33.0118 9.60937C33.8712 7.88086 33.9298 6.25 33.1876 4.72656C32.7091 3.73046 32.1134 3.21289 30.1212 2.01171C29.5255 1.66015 28.7149 1.10351 28.3341 0.771481C27.3575 -0.0488319 26.9571 -0.166019 26.2931 0.166012ZM29.545 3.3789C31.0587 4.28711 31.547 4.71679 31.9083 5.45898C32.1524 5.94726 32.1817 6.11328 32.1817 6.98242C32.1817 7.94921 32.172 7.96875 31.7423 8.82812C31.4981 9.30664 31.2345 9.73632 31.1563 9.77539C30.9317 9.88281 27.6114 10.7422 27.4259 10.7422C27.338 10.7422 26.9376 10.5176 26.5274 10.2539C25.3263 9.44336 24.6915 8.35937 24.6915 7.1289C24.6915 6.34765 24.8575 5.89843 25.7169 4.3457C26.254 3.3789 26.6837 2.4414 26.9181 1.67968C26.9376 1.60156 27.1915 1.73828 27.6114 2.08007C27.9825 2.37304 28.8517 2.95898 29.545 3.3789ZM31.547 11.4453C31.7716 11.9727 32.9239 16.4355 32.8458 16.5039C32.7677 16.582 29.8282 17.3926 29.545 17.4121C29.4083 17.4316 29.252 16.9727 28.7149 14.9902C28.3438 13.6426 28.0411 12.4707 28.0313 12.373C28.0313 12.2754 28.1095 12.168 28.2071 12.1387C28.4122 12.0508 31.2735 11.25 31.381 11.2402C31.42 11.2305 31.4981 11.3281 31.547 11.4453ZM35.4337 14.6191C37.0841 15.791 37.7872 16.6016 38.1876 17.7832C38.3731 18.3105 38.3927 18.5644 38.3634 19.3555C38.3243 20.1758 38.2755 20.3809 37.963 21.0254C37.7774 21.4355 37.4356 21.9629 37.211 22.207C36.8106 22.6465 35.9708 23.2422 35.7657 23.2422C35.6778 23.2422 34.8673 20.9082 34.8673 20.6445C34.8673 20.5957 35.004 20.4785 35.17 20.3906C35.3458 20.2832 35.5411 20.0391 35.6681 19.7559C35.8536 19.3359 35.8634 19.2383 35.756 18.7402C35.502 17.5 35.3556 17.1582 34.8673 16.6992C34.4181 16.2695 34.3888 16.2012 34.047 14.9609C33.8517 14.248 33.6954 13.623 33.6954 13.5644C33.6954 13.4668 34.4376 13.9062 35.4337 14.6191ZM34.2032 18.4961C34.3009 18.8672 34.3692 19.1797 34.3595 19.1894C34.2911 19.2578 29.5645 20.5176 29.5352 20.4785C29.506 20.459 29.4083 20.1465 29.3009 19.7852C29.1739 19.3359 29.1544 19.1211 29.2227 19.0723C29.3985 18.9746 33.7247 17.793 33.881 17.8125C33.9591 17.8125 34.0958 18.0957 34.2032 18.4961ZM31.6056 29.5605C31.9962 31.2695 32.3282 32.6953 32.3282 32.7246C32.3282 32.8125 30.1114 31.6406 29.5743 31.2695C27.9239 30.1367 27.7481 28.6816 29.1251 27.4902C29.5645 27.1191 30.7755 26.3477 30.8438 26.4062C30.8634 26.4258 31.2052 27.8418 31.6056 29.5605Z" fill="#1E2533"/>
<path d="M19.877 12.627C19.2032 12.8516 18.7247 13.1543 18.2364 13.6328C16.3712 15.5078 16.9278 18.6035 19.3399 19.7656C19.9259 20.0391 20.0528 20.0684 20.9513 20.0684C21.8497 20.0684 21.9766 20.0391 22.5724 19.7559C23.3438 19.375 24.0372 18.6816 24.3985 17.8906C24.6329 17.4023 24.6622 17.2168 24.6622 16.3086C24.6622 15.4004 24.6329 15.2148 24.3985 14.7266C24.0274 13.9355 23.3438 13.2422 22.5724 12.8711C22.0352 12.6074 21.7911 12.5586 21.0977 12.5293C20.5899 12.5098 20.1114 12.5488 19.877 12.627ZM21.9278 14.1992C22.797 14.5996 23.2462 15.3125 23.2462 16.3086C23.2462 17.3047 22.797 18.0176 21.9278 18.418C20.7852 18.9551 19.4278 18.4863 18.8321 17.3438C18.5294 16.7871 18.5294 15.8301 18.8321 15.2734C19.0763 14.7949 19.7501 14.1895 20.17 14.0723C20.7266 13.9063 21.42 13.9551 21.9278 14.1992Z" fill="#FA7846"/>
<path d="M11.1367 16.5918C10.082 16.9336 9.18359 17.7246 8.71484 18.7305C8.49023 19.2188 8.45117 19.4141 8.45117 20.3125C8.45117 21.2207 8.48047 21.3965 8.71484 21.9043C9.08594 22.6855 9.85742 23.4766 10.6387 23.8574C11.2344 24.1406 11.3613 24.1699 12.2598 24.1699C13.5684 24.1602 14.1836 23.9258 14.9941 23.1055C15.9121 22.1875 16.293 21.1523 16.1758 19.9316C16.1172 19.209 15.7168 18.2813 15.2383 17.7344C14.2324 16.6016 12.5625 16.1328 11.1367 16.5918ZM13.5586 18.2227C14.75 18.9551 15.0918 20.5078 14.3301 21.6504C13.2559 23.2422 10.9023 23.0664 10.1016 21.3379C9.52539 20.1074 10.043 18.7012 11.2832 18.0957C11.9668 17.7637 12.8945 17.8223 13.5586 18.2227Z" fill="#FA7846"/>
<path d="M7.81639 25.6249C7.01561 25.791 6.24412 26.2207 5.63866 26.8261C5.01366 27.4511 4.66209 28.0566 4.44725 28.8574C3.53905 32.3632 7.01561 35.4101 10.4238 34.1015C11.4785 33.7011 12.2793 32.9199 12.8262 31.7578C13.0898 31.2011 13.1387 30.9667 13.168 30.1757C13.1972 29.414 13.168 29.1406 12.9922 28.623C12.7676 27.9394 12.289 27.1581 11.8496 26.7382C11.3613 26.2792 10.4531 25.8007 9.76951 25.6445C8.98826 25.4589 8.55858 25.4589 7.81639 25.6249ZM10.1699 27.3632C11.1269 27.871 11.6347 28.6523 11.7031 29.746C11.7617 30.6933 11.5566 31.289 10.9316 31.9726C10.3066 32.6562 9.67186 32.9394 8.73436 32.9394C7.57225 32.9394 6.63475 32.3437 6.03905 31.2304C5.71678 30.6249 5.71678 29.3359 6.04881 28.7109C6.87889 27.1191 8.6367 26.5429 10.1699 27.3632Z" fill="#FA7846"/>
<path d="M12.8945 35.3125C11.8105 35.6055 10.9219 36.3574 10.4141 37.4023C10.1406 37.9883 10.1113 38.1152 10.1113 39.0137C10.1211 39.873 10.1504 40.0586 10.3848 40.5469C10.7852 41.3672 11.4297 42.0313 12.1914 42.4023C12.7969 42.7051 12.9043 42.7246 13.8711 42.7246C14.7793 42.7246 14.9648 42.6953 15.4531 42.4609C16.2344 42.0996 16.9375 41.4063 17.3184 40.6348C17.6113 40.0391 17.6309 39.9121 17.6309 39.0137C17.6309 38.125 17.6016 37.9785 17.3281 37.4023C16.5078 35.6934 14.6914 34.834 12.8945 35.3125ZM14.916 36.8945C16.0684 37.4805 16.5273 38.8281 15.9805 39.9902C15.5801 40.8594 14.8672 41.3086 13.8711 41.3086C12.875 41.3086 12.1621 40.8594 11.7617 39.9902C11.1367 38.6621 11.8301 37.1875 13.2852 36.709C13.666 36.582 14.4863 36.6797 14.916 36.8945Z" fill="#FA7846"/>
<path d="M21.8303 38.2124C20.424 38.6811 19.5451 39.6089 19.1838 41.0151C18.8713 42.2358 19.2033 43.4761 20.092 44.4331C21.9865 46.4839 25.2189 45.9565 26.3908 43.3979C26.5763 42.9975 26.6154 42.7534 26.6154 41.894C26.6154 40.9858 26.5861 40.8003 26.3517 40.312C25.9904 39.5308 25.3068 38.8276 24.5353 38.4565C23.9982 38.1929 23.7834 38.144 23.0607 38.1147C22.5529 38.0952 22.0646 38.1343 21.8303 38.2124ZM23.6467 39.6675C24.5646 39.9409 25.1994 40.8491 25.1994 41.8745C25.1994 43.896 22.9045 44.9702 21.3908 43.6714C20.3556 42.7925 20.2482 41.3765 21.1271 40.3706C21.7912 39.6186 22.6701 39.3745 23.6467 39.6675Z" fill="#FA7846"/>
</svg>
