<svg width="50" height="50" viewBox="0 0 50 50" fill="none" xmlns="http://www.w3.org/2000/svg">
<path d="M1.90442 0.175671C1.56263 0.283092 1.25013 0.497936 0.879033 0.878796C-0.0877635 1.84559 0.000127126 -0.673939 0.000127126 24.9999C0.000127126 50.6737 -0.0877635 48.1542 0.879033 49.121C1.81653 50.0682 0.713018 49.9999 14.463 49.9999C26.2306 49.9999 26.465 49.9999 26.9825 49.8046C27.6954 49.5409 28.2521 49.0331 28.5841 48.3593L28.8575 47.8026L28.8868 42.9882C28.9064 40.3515 28.9357 38.1835 28.9552 38.1835C28.9747 38.1835 29.6193 38.4862 30.3908 38.8573C32.0314 39.6581 32.4318 39.9706 32.9591 40.8788C34.1017 42.8515 36.1134 43.8378 38.1642 43.4374C38.838 43.3007 39.3263 43.0858 41.4747 41.9628C42.8615 41.2304 44.0529 40.5468 44.131 40.4393C44.3849 40.0585 43.9943 39.3554 43.5255 39.3554C43.4083 39.3554 42.2072 39.9218 40.8693 40.6151C39.5314 41.3182 38.2228 41.9335 37.9591 42.0018C36.5138 42.3436 34.9513 41.5526 34.2091 40.0878C34.0724 39.8241 33.6818 39.3261 33.3497 38.994C32.7443 38.3886 32.588 38.3104 26.7384 35.4198C20.3126 32.2362 20.2052 32.1776 20.0587 31.3768C19.9122 30.6054 20.381 29.6581 21.0939 29.2968C21.8556 28.9061 21.797 28.8866 25.8986 31.035C26.7579 31.4843 26.8751 31.5233 27.1486 31.4354C27.4708 31.3182 27.6368 31.0936 27.6368 30.7421C27.6368 30.6249 26.006 27.4022 24.004 23.5839C20.5079 16.914 20.3712 16.6307 20.3712 16.1132C20.3712 15.1073 21.0939 14.2772 22.0607 14.1796C22.5978 14.1307 23.1544 14.3749 23.4572 14.7948C23.5548 14.9218 25.0392 17.7147 26.7677 21.0155C28.4865 24.3065 29.9904 27.0995 30.1075 27.2167C30.4396 27.5878 31.045 27.4413 31.2501 26.9432C31.3575 26.6991 31.3087 26.5624 30.7618 25.4686C30.42 24.8046 30.1173 24.2186 30.0783 24.1698C29.922 23.9745 29.8732 23.3593 29.9708 22.9784C30.1075 22.4706 30.8009 21.8163 31.299 21.7186C31.7579 21.6307 32.3732 21.7186 32.6661 21.914C32.7931 22.0018 33.2033 22.6561 33.6036 23.4081C33.9845 24.1503 34.3751 24.8339 34.4533 24.9218C34.6486 25.1464 35.1759 25.1464 35.4591 24.9218C35.8107 24.6288 35.7228 24.2772 34.922 22.7636C34.5118 21.9921 34.1798 21.2499 34.1798 21.1132C34.1798 20.6932 34.5509 20.0585 34.9708 19.7655C35.4884 19.414 36.3087 19.3358 36.8165 19.5995C37.09 19.746 37.2658 20.0097 37.8517 21.1327C38.2423 21.8749 38.6427 22.5682 38.7306 22.6659C39.1115 23.0858 39.9415 22.7636 39.9415 22.2069C39.9415 22.0604 39.6095 21.3182 39.2091 20.5565C38.4083 19.0429 38.3595 18.789 38.672 18.164C39.2189 17.0995 40.8302 16.8749 41.6212 17.744C41.8849 18.037 44.6681 23.3886 45.3029 24.8241C46.0157 26.455 46.6407 28.2421 47.2169 30.3319C47.4611 31.2206 47.8419 32.3729 48.0568 32.8807C48.3009 33.4472 48.4767 34.0331 48.506 34.3651C48.6036 35.4296 48.047 36.6503 47.1974 37.2362C46.5431 37.6854 46.3868 37.8612 46.3868 38.1249C46.3868 38.4667 46.7775 38.8866 47.0997 38.8964C47.7443 38.8964 49.004 37.7343 49.5021 36.6796C50.1857 35.2245 50.1564 33.9061 49.3849 32.2265C49.1993 31.8261 48.9064 30.9667 48.7306 30.3222C47.6954 26.3964 46.963 24.619 44.2189 19.4042C43.1349 17.3534 42.8615 16.914 42.4513 16.5526C41.8165 15.9765 40.879 15.664 40.0197 15.7616C38.8282 15.8788 37.7443 16.621 37.3048 17.6073L37.1193 18.0077H36.1134C35.254 18.0175 35.0392 18.0468 34.6193 18.2616C34.004 18.5546 33.3107 19.2479 33.047 19.8143L32.8419 20.2538H31.8263C30.9181 20.2636 30.7521 20.2929 30.254 20.537C29.9415 20.6932 29.5216 21.0057 29.3068 21.2597L28.9161 21.6991L28.8868 11.953L28.8575 2.19715L28.5841 1.64051C28.2521 0.966686 27.6954 0.458874 26.9825 0.195202C26.4747 0.009655 26.2306 -0.000110626 17.588 -0.000110626C9.06263 -0.000110626 8.7013 0.009655 8.48645 0.185436C8.17395 0.439342 8.17395 1.02528 8.48645 1.27919C8.7013 1.45497 9.06263 1.46473 17.5001 1.46473C27.2853 1.46473 26.7286 1.42567 27.1681 2.13856C27.3634 2.4413 27.3927 2.64637 27.4318 3.73036L27.4611 4.98036H14.463H1.46497V3.77919C1.46497 2.46083 1.57239 2.08973 2.0802 1.71864C2.32435 1.54286 2.53919 1.5038 3.77942 1.46473C5.11731 1.4159 5.2052 1.40614 5.38099 1.18153C5.63489 0.86903 5.61536 0.527233 5.32239 0.24403C5.09778 0.009655 5.03919 -0.000110626 3.74036 0.009655C2.7638 0.009655 2.25599 0.0584831 1.90442 0.175671ZM27.422 12.744C27.4318 16.5624 27.4122 18.9452 27.3536 18.8964C27.3048 18.8378 26.8849 18.0858 26.4259 17.2069L25.5861 15.6151V13.1737C25.5861 11.2597 25.5568 10.6737 25.4493 10.4686C25.2443 10.0682 24.7853 9.67762 24.4044 9.5702C24.1993 9.51161 20.42 9.47255 14.3556 9.47255C5.01966 9.47255 4.61927 9.48231 4.22864 9.65809C3.97474 9.77528 3.72083 9.99989 3.54505 10.2636L3.27161 10.6835V13.8085C3.27161 16.914 3.27161 16.9432 3.49622 17.3046C3.62317 17.4999 3.88685 17.7636 4.08216 17.8905L4.44349 18.1151L11.9825 18.1444L19.5118 18.164L21.924 22.7831C23.2521 25.3124 24.5411 27.7636 24.7853 28.2128L25.2247 29.0331L24.2579 28.5253C23.7306 28.2421 23.0763 27.9296 22.8126 27.8417L22.3341 27.6757L22.1681 26.8456C21.8165 25.1464 21.2208 24.0526 19.922 22.7538C18.5646 21.3964 17.1779 20.7225 15.2736 20.4979C11.465 20.0487 7.82239 22.5585 6.77747 26.3671C6.50403 27.3534 6.52356 29.4042 6.81653 30.4003C7.59778 33.1249 9.64856 35.1757 12.3732 35.9569C13.3693 36.2499 15.42 36.2694 16.4064 35.996C17.5783 35.6835 19.4533 34.619 20.0001 33.9647C20.1075 33.828 20.3517 33.9257 22.0997 34.8046C23.1837 35.3515 24.8341 36.162 25.7618 36.6015L27.4513 37.3925L27.422 38.8378L27.3927 40.2831L14.4337 40.3124L1.46497 40.3319V23.3886V6.4452L14.4337 6.46473L27.3927 6.49403L27.422 12.744ZM24.1017 12.1776L24.131 13.369L23.5255 13.0565C22.9884 12.7831 22.8322 12.744 22.129 12.744C21.5333 12.7538 21.2208 12.8026 20.879 12.9589C19.5607 13.5546 18.8283 14.6581 18.8283 16.035V16.6991H11.8751C6.60169 16.6991 4.8927 16.6698 4.80481 16.5819C4.6388 16.4159 4.6388 11.2206 4.80481 11.0546C4.8927 10.9667 7.12903 10.9374 14.5021 10.9569L24.0724 10.9862L24.1017 12.1776ZM15.5275 22.0116C17.3732 22.3436 18.9747 23.4472 19.9415 25.0487C20.3419 25.7128 20.6935 26.6796 20.7716 27.3339L20.8204 27.7831L20.2638 28.0663C19.5802 28.4179 19.0138 29.0526 18.7404 29.7753C18.4767 30.4882 18.5158 31.6698 18.8283 32.3143C18.9454 32.5585 19.0431 32.7831 19.0431 32.8124C19.0431 32.8515 18.7794 33.0858 18.4669 33.3397C14.3165 36.5917 8.32044 33.9061 8.03724 28.662C7.89075 26.0155 9.33606 23.6327 11.7677 22.5097C12.9982 21.9335 14.2091 21.7772 15.5275 22.0116ZM27.422 44.6483C27.3927 47.4218 27.3829 47.5194 27.1681 47.8612C26.7286 48.5839 27.6368 48.535 14.4337 48.535C3.34974 48.535 2.56849 48.5253 2.25599 48.3593C2.07044 48.2714 1.8263 48.0663 1.71888 47.9198C1.52356 47.6561 1.5138 47.4999 1.4845 44.7167L1.45521 41.7968H14.4533H27.4513L27.422 44.6483Z" fill="#1E2533"/>
<path d="M15.3613 27.4609L12.9004 29.9219L11.9824 29.0234C11.1719 28.2324 11.0254 28.125 10.7129 28.125C10.459 28.125 10.3125 28.1934 10.166 28.3789C9.79492 28.8477 9.88281 29.0332 10.9668 30.1465C12.0703 31.2891 12.627 31.7383 12.9297 31.7383C13.0566 31.7383 14.0918 30.7715 15.9863 28.8867C18.5742 26.3086 18.8477 25.9961 18.8477 25.7129C18.8477 25.293 18.5547 25 18.1348 25C17.8516 25 17.5684 25.2539 15.3613 27.4609Z" fill="#FA7846"/>
<path d="M11.7187 43.2813C10.8789 43.5254 10.4102 44.1992 10.4102 45.1758C10.4102 45.9277 10.7422 46.5332 11.3086 46.8555C11.6797 47.0605 11.7773 47.0703 14.3848 47.0703C16.0547 47.0703 17.1777 47.0313 17.3535 46.9629C18.0078 46.7188 18.4473 45.9863 18.457 45.1367C18.457 44.2578 17.9102 43.4863 17.1094 43.2617C16.6504 43.1348 12.1777 43.1445 11.7187 43.2813ZM16.9043 44.8145C17.0996 44.9707 17.1191 45.0391 17.041 45.2734L16.9434 45.5566L14.5117 45.5859C11.9434 45.6152 11.8164 45.5859 11.8164 45.1563C11.8164 44.6582 11.9336 44.6289 14.4043 44.6289C16.4941 44.6289 16.6992 44.6484 16.9043 44.8145Z" fill="black"/>
</svg>
