<svg width="21" height="21" viewBox="0 0 21 21" fill="none" xmlns="http://www.w3.org/2000/svg">
<path d="M9.96297 0.226318C6.17391 0.499756 2.86825 2.73608 1.24227 6.12964C0.544031 7.58472 0.236414 8.94214 0.231531 10.5974C0.221766 13.1267 1.04208 15.3923 2.66805 17.3357C4.10848 19.0642 6.41805 20.2996 8.91317 20.6853C9.63094 20.7976 11.1056 20.7976 11.8429 20.6853C16.462 19.9822 19.9825 16.4617 20.6856 11.8425C20.7979 11.1052 20.7979 9.63062 20.6856 8.91284C20.3829 6.95972 19.6505 5.28979 18.4298 3.78101C16.9845 1.98901 14.5968 0.68042 12.1358 0.323975C11.5792 0.24585 10.4317 0.192139 9.96297 0.226318ZM7.15047 5.82202C7.31649 5.87085 7.60458 6.12964 8.92782 7.44312L10.5001 9.00562L12.0772 7.44312C13.752 5.77319 13.7716 5.76343 14.2403 5.76343C14.7579 5.76831 15.2364 6.25171 15.2364 6.76929C15.2364 7.22827 15.2218 7.25269 13.5567 8.92749L11.9942 10.4998L13.5372 12.0525C14.5675 13.0828 15.1095 13.6589 15.1632 13.781C15.4415 14.4597 14.9288 15.241 14.2013 15.2361C13.7764 15.2312 13.6397 15.1238 12.0284 13.5125L10.5001 11.989L8.97665 13.5125C7.36044 15.1238 7.22372 15.2312 6.79891 15.2361C6.07137 15.241 5.55868 14.4597 5.837 13.781C5.89071 13.6589 6.4327 13.0828 7.46297 12.0525L9.00594 10.4998L7.44344 8.92749C6.12997 7.60425 5.87118 7.31616 5.82235 7.15015C5.57333 6.27612 6.27645 5.573 7.15047 5.82202Z" fill="#EB001B"/>
</svg>
