<svg width="50" height="50" viewBox="0 0 50 50" fill="none" xmlns="http://www.w3.org/2000/svg">
<path d="M29.5313 2.97898C24.4532 4.32663 20.9669 9.27781 21.4844 14.3852C22.0509 19.9614 26.2891 24.102 31.7091 24.3852C37.3634 24.6782 42.2755 20.6938 43.1153 15.1372C43.3008 13.9653 43.3008 13.0864 43.1251 11.9145L42.9786 10.9868L44.0821 9.86374C44.6973 9.24851 45.2637 8.58445 45.3614 8.3989C45.586 7.96921 45.6641 6.95359 45.5176 6.42624C45.2051 5.32273 44.1016 4.49265 42.9298 4.49265C42.1583 4.49265 41.4844 4.80515 40.7716 5.47898L40.2344 5.98679L39.6485 5.43015C38.545 4.41453 37.2266 3.65281 35.6641 3.12546C34.4532 2.72507 33.8966 2.66648 33.5938 2.91062C33.3204 3.13523 33.2716 3.72116 33.5059 3.96531C33.5938 4.04343 34.0821 4.21921 34.5997 4.34616C35.127 4.48288 35.8399 4.71726 36.2012 4.88328C37.0313 5.26414 38.3204 6.12351 38.8184 6.63132L39.2091 7.03171L36.1036 10.1372L33.0079 13.2329L31.1329 11.3677C30.0977 10.3325 29.0626 9.38523 28.8477 9.24851C27.4317 8.3696 25.4884 9.04343 24.9024 10.6255C24.668 11.2505 24.6583 11.7094 24.8634 12.4126C25.0098 12.9106 25.1856 13.1157 28.2032 16.143C30.0587 18.0083 31.5626 19.4341 31.7872 19.5512C32.3341 19.8344 33.2423 19.893 33.8966 19.6782C34.3848 19.5219 34.6778 19.2485 38.0469 15.8989C41.67 12.2954 41.67 12.2856 41.7383 12.5981C41.9141 13.477 41.6993 15.3423 41.2989 16.5337C40.5958 18.5649 39.0528 20.4985 37.2755 21.563C35.8204 22.4419 33.9844 22.9497 32.3048 22.9497C27.5001 22.9399 23.4083 19.1899 22.9591 14.395C22.6173 10.6743 24.3946 7.21726 27.6075 5.33249C28.3399 4.90281 29.0137 4.63913 30.127 4.3364C31.0548 4.09226 31.3477 3.87741 31.3477 3.44773C31.3477 3.14499 30.9376 2.73484 30.6446 2.73484C30.5176 2.7446 30.0196 2.85202 29.5313 2.97898ZM43.5548 6.11374C44.0723 6.42624 44.3067 7.20749 44.0333 7.7446C43.877 8.04734 33.8966 18.0473 33.5743 18.2231C33.2423 18.3989 32.7735 18.3989 32.4415 18.2231C32.0216 17.9985 26.3868 12.2856 26.2696 11.9634C26.0352 11.3286 26.4454 10.5473 27.1094 10.3618C27.754 10.186 27.9591 10.3325 30.0684 12.4321C31.1719 13.5259 32.1876 14.5024 32.3243 14.5903C32.461 14.6782 32.7637 14.7466 33.0469 14.7466H33.5352L37.793 10.5083C40.127 8.18406 42.1485 6.20164 42.2852 6.11374C42.588 5.90867 43.2032 5.90867 43.5548 6.11374Z" fill="#FA7846"/>
<path d="M18.0176 25.3812C16.5625 25.6449 14.4727 26.2015 12.9883 26.7093C11.1523 27.3441 11.3184 27.3441 11.0449 26.7093C10.9082 26.3968 10.6738 26.055 10.5078 25.9281C10.166 25.6742 9.49219 25.4789 9.15039 25.557C9.0332 25.5765 7.13867 26.3383 4.94141 27.2269C0.566406 29.0043 0.322266 29.1508 0.107422 29.9515C0.0292969 30.2347 -9.31323e-10 32.6664 0.0195313 38.3011L0.0488281 46.2601L0.3125 46.6019C0.625 47.0121 1.31836 47.3148 1.74805 47.2367C2.13867 47.1586 15.0879 41.8363 15.5957 41.5433C16.3379 41.1136 16.6113 40.0687 16.2109 39.1898L16.0254 38.7699L16.4453 38.5843C17.6855 38.0375 18.9941 37.9691 20.2637 38.389C21.084 38.6625 21.4941 38.9164 24.209 40.7621C25.6445 41.7386 26.6895 42.3832 26.8262 42.3832C27.1191 42.3832 27.5391 41.973 27.5391 41.6996C27.5391 41.5824 27.4902 41.4066 27.4414 41.309C27.2949 41.0258 22.8418 38.0179 21.7773 37.4808C20.5469 36.8558 19.834 36.68 18.5059 36.68C17.5488 36.68 17.3438 36.7093 16.6016 36.9828C16.1426 37.139 15.7031 37.305 15.625 37.3441C15.4102 37.432 11.8262 28.7308 12.0215 28.6039C12.2949 28.4379 14.8828 27.6175 16.1816 27.2953C18.0762 26.8168 19.4824 26.6215 20.5762 26.6898C22.0313 26.7875 25.8008 27.5882 26.6211 27.9691C27.4609 28.3695 32.7832 31.9242 33.3594 32.4711C34.1309 33.2035 34.1406 34.141 33.3984 34.8832C32.793 35.4984 32.7148 35.4789 29.1504 33.7406C27.4121 32.891 25.9277 32.2269 25.7715 32.2269C25.4492 32.2269 25.0977 32.6175 25.0977 32.9789C25.0977 33.1156 25.1953 33.3011 25.3223 33.4086C25.4395 33.516 26.9434 34.2875 28.6621 35.1371L31.7871 36.6703H32.5684C33.4473 36.6703 33.877 36.514 34.4434 35.9769L34.7754 35.6644L40.4688 35.264C43.5938 35.0394 46.3672 34.8636 46.6309 34.8636C47.8125 34.8636 48.6621 35.8207 48.4961 36.9633C48.4082 37.5199 47.832 38.184 47.1973 38.4574C46.7188 38.6625 30.8691 41.8949 30.3418 41.8949C29.9609 41.8949 29.6973 42.0511 29.5801 42.3539C29.4434 42.7152 29.6289 43.1156 30 43.2718C30.3906 43.4281 30.166 43.4672 39.5313 41.5922C48.1152 39.8734 48.0664 39.8929 49.0137 38.9457C49.7266 38.2328 49.9414 37.725 49.9414 36.7191C49.9512 36.0258 49.9023 35.8011 49.6973 35.3519C49.3945 34.6976 48.9551 34.18 48.4961 33.9359L48.1641 33.7504L48.2129 32.9105C48.3203 31.3383 47.7344 30.2543 46.4453 29.5902C45.8496 29.2875 45.6934 29.2484 44.9805 29.2484C44.4531 29.2484 44.0527 29.307 43.7793 29.4144C43.2324 29.639 36.6406 33.555 36.3281 33.8383C36.1914 33.9652 35.9375 34.0824 35.7617 34.1019L35.4395 34.1312L35.4102 33.5258C35.3613 32.7738 35.0293 32.0218 34.4824 31.4847C34.082 31.0843 28.75 27.4418 27.7246 26.8656C26.9043 26.4066 26.2695 26.2211 23.8477 25.723C21.1426 25.1761 19.6289 25.0785 18.0176 25.3812ZM12.2559 33.4281C13.7012 36.934 14.8926 39.8832 14.9219 40.0004C14.9414 40.1078 14.9023 40.2445 14.8242 40.3031C14.7363 40.3715 2.98828 45.225 1.5918 45.7718C1.41602 45.8402 1.40625 30.3226 1.58203 30.2152C1.93359 29.9906 9.42383 26.973 9.52149 27.0121C9.58008 27.0414 10.8105 29.9222 12.2559 33.4281ZM45.7813 30.8695C46.377 31.1625 46.7773 31.7972 46.7773 32.4613C46.7773 33.4281 47.1582 33.3207 42.8906 33.6136C40.8203 33.7601 39.1113 33.8675 39.1016 33.8578C39.0625 33.8187 44.0527 30.889 44.3359 30.7718C44.7461 30.6156 45.3223 30.6547 45.7813 30.8695Z" fill="#1E2533"/>
</svg>
